<?xml version="1.0" encoding="UTF-8"?>
<svg version="1.1" xmlns="http://www.w3.org/2000/svg" width="668" height="236">
<path d="M0 0 C1.32958028 0.67412053 2.66198455 1.34278096 4 2 C4.52207031 1.57847656 5.04414062 1.15695313 5.58203125 0.72265625 C11.55859427 -3.7257488 16.51706562 -5.47442235 24 -5 C30.35179038 -3.78077089 35.51193458 -1.44936342 39.375 3.90625 C43.1871935 10.05774406 44.82962541 16.0308895 43.625 23.24609375 C40.25509786 35.06181312 31.64707222 43.92714372 23.0625 52.25 C22.10133266 53.19963008 21.14104251 54.15014884 20.18164062 55.1015625 C14.94366355 60.25651169 9.60730006 65.24863041 4 70 C1.05573232 68.66531899 -1.09236999 67.18267324 -3.42578125 64.953125 C-4.05806641 64.355 -4.69035156 63.756875 -5.34179688 63.140625 C-5.99212891 62.51671875 -6.64246094 61.8928125 -7.3125 61.25 C-8.59889898 60.02461086 -9.88665259 58.80064215 -11.17578125 57.578125 C-11.81040283 56.97613281 -12.44502441 56.37414062 -13.09887695 55.75390625 C-14.91936468 54.07439118 -16.78598081 52.4772315 -18.6875 50.890625 C-23.47571314 46.83297762 -27.1699976 41.94553708 -31 37 C-31.78375 35.989375 -32.5675 34.97875 -33.375 33.9375 C-36.74758692 27.84090056 -38.88903496 20.98527472 -38 14 C-35.64904189 7.04357525 -32.68686791 1.22964793 -26 -2.25 C-16.80904916 -6.63006251 -8.58910289 -4.96967744 0 0 Z " fill="#E85F60" transform="translate(115,86)"/>
<path d="M0 0 C3.79832463 3.91342538 3.18318073 8.18812051 3.125 13.3125 C3.12048828 14.06208984 3.11597656 14.81167969 3.11132812 15.58398438 C3.09956354 17.43102383 3.08162865 19.27802213 3.0625 21.125 C4.3825 21.455 5.7025 21.785 7.0625 22.125 C7.0625 23.445 7.0625 24.765 7.0625 26.125 C6.0625 27.125 6.0625 27.125 3.8125 27.3125 C1.0625 27.125 1.0625 27.125 -1.5 26 C-2.304375 25.71125 -3.10875 25.4225 -3.9375 25.125 C-4.5459375 25.42921875 -5.154375 25.7334375 -5.78125 26.046875 C-9.64159103 27.97704552 -13.72956911 27.66290702 -17.9375 27.125 C-21 25.5625 -21 25.5625 -22.9375 23.125 C-24.05250247 19.292179 -24.32001709 17.11504424 -22.875 13.375 C-20.06346867 10.10999587 -17.26471552 8.37162207 -12.91015625 7.91015625 C-9.47244402 7.85254096 -6.210408 8.03403067 -2.9375 9.125 C-3.2675 7.475 -3.5975 5.825 -3.9375 4.125 C-9.57031599 3.8853057 -14.48288831 4.73970179 -19.9375 6.125 C-20.5975 4.805 -21.2575 3.485 -21.9375 2.125 C-19.66217276 -1.00357496 -16.81416368 -1.7857145 -13.125 -2.5859375 C-8.19956827 -3.23679812 -4.27433458 -2.72829867 0 0 Z M-16.9375 15.125 C-16.9375 17.105 -16.9375 19.085 -16.9375 21.125 C-11.6960303 22.53124797 -8.6428118 21.80056946 -3.9375 19.125 C-2.89460245 17.05609581 -2.89460245 17.05609581 -2.9375 15.125 C-5.42504786 13.88122607 -7.16405301 13.99193765 -9.9375 14 C-11.2678125 13.99613281 -11.2678125 13.99613281 -12.625 13.9921875 C-14.96426966 13.97372098 -14.96426966 13.97372098 -16.9375 15.125 Z " fill="#E62125" transform="translate(254.9375,104.875)"/>
<path d="M0 0 C4.21697692 4.35754282 4.13243704 8.92576383 4.0625 14.6875 C4.05798828 15.38939453 4.05347656 16.09128906 4.04882812 16.81445312 C4.03706927 18.54300538 4.01913454 20.27151365 4 22 C5.32 22.66 6.64 23.32 8 24 C8 24.99 8 25.98 8 27 C5.35541621 28.32229189 3.32238699 28.09677194 0.375 28.0625 C-0.62789063 28.05347656 -1.63078125 28.04445312 -2.6640625 28.03515625 C-3.43492187 28.02355469 -4.20578125 28.01195312 -5 28 C-6.0625 26.125 -6.0625 26.125 -7 24 C-6.67 23.34 -6.34 22.68 -6 22 C-4.68 22 -3.36 22 -2 22 C-2.33 16.39 -2.66 10.78 -3 5 C-9.45454037 5.33864433 -9.45454037 5.33864433 -11.875 7.4375 C-14.07109069 10.48762596 -14.26053755 12.91517561 -14.5625 16.625 C-14.64628906 17.62789062 -14.73007812 18.63078125 -14.81640625 19.6640625 C-14.87699219 20.43492188 -14.93757813 21.20578125 -15 22 C-13.68 22.33 -12.36 22.66 -11 23 C-11 24.32 -11 25.64 -11 27 C-12 28 -12 28 -14.72265625 28.09765625 C-15.82480469 28.08605469 -16.92695313 28.07445312 -18.0625 28.0625 C-19.71958984 28.04896484 -19.71958984 28.04896484 -21.41015625 28.03515625 C-22.26480469 28.02355469 -23.11945313 28.01195312 -24 28 C-24.33 26.35 -24.66 24.7 -25 23 C-23.68 22.67 -22.36 22.34 -21 22 C-21 16.39 -21 10.78 -21 5 C-22.32 4.67 -23.64 4.34 -25 4 C-25 0 -25 0 -24 -1 C-17.53846154 -1.35897436 -17.53846154 -1.35897436 -14 1 C-12.2985218 0.21470237 -10.59784177 -0.57253305 -8.90625 -1.37890625 C-5.52491628 -2.48061129 -3.13557987 -1.38689109 0 0 Z " fill="#EB2023" transform="translate(440,104)"/>
<path d="M0 0 C4.21697692 4.35754282 4.13243704 8.92576383 4.0625 14.6875 C4.05798828 15.38939453 4.05347656 16.09128906 4.04882812 16.81445312 C4.03706927 18.54300538 4.01913454 20.27151365 4 22 C5.32 22.66 6.64 23.32 8 24 C8 24.99 8 25.98 8 27 C5.39080172 28.30459914 3.41057385 28.1326594 0.5 28.125 C-0.4796875 28.12757813 -1.459375 28.13015625 -2.46875 28.1328125 C-5 28 -5 28 -7 27 C-6.67 25.35 -6.34 23.7 -6 22 C-4.68 22 -3.36 22 -2 22 C-2.33 16.39 -2.66 10.78 -3 5 C-9.45454037 5.33864433 -9.45454037 5.33864433 -11.875 7.4375 C-14.07109069 10.48762596 -14.26053755 12.91517561 -14.5625 16.625 C-14.64628906 17.62789062 -14.73007812 18.63078125 -14.81640625 19.6640625 C-14.87699219 20.43492188 -14.93757813 21.20578125 -15 22 C-13.68 22.33 -12.36 22.66 -11 23 C-11 24.32 -11 25.64 -11 27 C-12 28 -12 28 -14.43359375 28.1328125 C-15.92052734 28.12894531 -15.92052734 28.12894531 -17.4375 28.125 C-18.92056641 28.12886719 -18.92056641 28.12886719 -20.43359375 28.1328125 C-23 28 -23 28 -25 27 C-24.67 25.35 -24.34 23.7 -24 22 C-23.01 22 -22.02 22 -21 22 C-21 16.39 -21 10.78 -21 5 C-22.32 4.67 -23.64 4.34 -25 4 C-25 0 -25 0 -24 -1 C-17.61126761 -1.47323944 -17.61126761 -1.47323944 -15.0625 0.5 C-14.711875 0.995 -14.36125 1.49 -14 2 C-13.401875 1.525625 -12.80375 1.05125 -12.1875 0.5625 C-7.68714388 -2.65204009 -5.00136049 -1.87551018 0 0 Z " fill="#E62526" transform="translate(477,104)"/>
<path d="M0 0 C4.50167425 3.36923644 5.95580863 6.57245886 6.91015625 12.05078125 C6.94109375 12.66308594 6.97203125 13.27539062 7.00390625 13.90625 C6.00390625 14.90625 6.00390625 14.90625 3.87084961 15.01977539 C2.95440674 15.01453857 2.03796387 15.00930176 1.09375 15.00390625 C0.10439453 15.00068359 -0.88496094 14.99746094 -1.90429688 14.99414062 C-2.94521484 14.98576172 -3.98613281 14.97738281 -5.05859375 14.96875 C-6.10337891 14.96423828 -7.14816406 14.95972656 -8.22460938 14.95507812 C-10.81516035 14.94324913 -13.40559934 14.92676689 -15.99609375 14.90625 C-15.20371564 17.38016134 -15.20371564 17.38016134 -13.99609375 19.90625 C-7.86168554 22.90819445 -2.44332187 21.42187325 4.00390625 19.90625 C4.66390625 21.22625 5.32390625 22.54625 6.00390625 23.90625 C0.63481018 28.1644986 -4.02976702 28.36884954 -10.75 28.31640625 C-14.89609802 27.79253105 -16.93163012 26.61398548 -19.7578125 23.60546875 C-23.10323801 19.01474289 -23.45035827 14.63256878 -22.6640625 9.15625 C-21.48132243 5.17228345 -19.16262408 2.52401395 -15.99609375 -0.09375 C-10.73443896 -2.83896119 -5.20040071 -2.84953463 0 0 Z M-13.99609375 5.90625 C-14.32609375 7.22625 -14.65609375 8.54625 -14.99609375 9.90625 C-10.04609375 9.90625 -5.09609375 9.90625 0.00390625 9.90625 C-1.5750142 5.65735278 -1.5750142 5.65735278 -5.30859375 4.53125 C-9.15693732 3.87898838 -10.74300501 3.80131023 -13.99609375 5.90625 Z " fill="#EE2223" transform="translate(512.99609375,104.09375)"/>
<path d="M0 0 C3.32956606 3.01983899 4.91645141 6.00180476 5.6875 10.4375 C5.3575 11.7575 5.0275 13.0775 4.6875 14.4375 C-2.5725 14.4375 -9.8325 14.4375 -17.3125 14.4375 C-15.14661375 20.47506812 -15.14661375 20.47506812 -11.625 21.4375 C-8.20339323 21.4375 -5.49396382 20.89613662 -2.2421875 19.91015625 C-0.3125 19.4375 -0.3125 19.4375 3.6875 19.4375 C4.0175 21.0875 4.3475 22.7375 4.6875 24.4375 C-1.67693717 27.989744 -8.12126519 28.58484525 -15.3125 27.4375 C-18.91287674 25.48828941 -21.47815353 23.10619294 -23.3125 19.4375 C-23.82478015 13.82761251 -24.07506033 8.98985496 -21.5625 3.875 C-15.13189987 -3.09148347 -8.66003409 -4.08492174 0 0 Z M-15.3125 5.4375 C-15.6425 6.7575 -15.9725 8.0775 -16.3125 9.4375 C-11.3625 9.4375 -6.4125 9.4375 -1.3125 9.4375 C-1.6425 8.1175 -1.9725 6.7975 -2.3125 5.4375 C-7.05720717 2.9402857 -10.56779283 2.9402857 -15.3125 5.4375 Z " fill="#F52020" transform="translate(329.3125,104.5625)"/>
<path d="M0 0 C1.15628906 -0.02126953 1.15628906 -0.02126953 2.3359375 -0.04296875 C4.84334888 0.20948393 6.45761902 0.93556533 8.625 2.1875 C8.625 1.5275 8.625 0.8675 8.625 0.1875 C11.1 0.6825 11.1 0.6825 13.625 1.1875 C13.625 5.4775 13.625 9.7675 13.625 14.1875 C12.305 14.5175 10.985 14.8475 9.625 15.1875 C7.0595406 12.6220406 7.08453913 10.71063332 6.625 7.1875 C-0.04837635 6.5272799 -0.04837635 6.5272799 -5.9375 9.0625 C-9.19421803 13.87677882 -8.91034129 18.50649019 -8.375 24.1875 C-7.28846597 27.98772765 -7.28846597 27.98772765 -4.375 30.1875 C0.87878496 31.13876671 4.92366387 30.61853279 9.625 28.1875 C11.875 28.5625 11.875 28.5625 13.625 29.1875 C13.625 30.5075 13.625 31.8275 13.625 33.1875 C8.8972404 37.58920721 3.81882501 37.59453679 -2.35546875 37.52734375 C-6.81828927 37.02505994 -9.43777644 35.54555383 -12.375 32.1875 C-16.34088956 26.04676777 -16.03732806 19.31672563 -15.375 12.1875 C-13.66662549 6.87255707 -10.73113326 4.43142902 -6.375 1.1875 C-4.04904054 0.02452027 -2.58776769 0.02149309 0 0 Z " fill="#DC2927" transform="translate(357.375,94.8125)"/>
<path d="M0 0 C1.15628906 -0.02126953 1.15628906 -0.02126953 2.3359375 -0.04296875 C4.84334888 0.20948393 6.45761902 0.93556533 8.625 2.1875 C8.625 1.5275 8.625 0.8675 8.625 0.1875 C11.1 0.6825 11.1 0.6825 13.625 1.1875 C13.625 5.4775 13.625 9.7675 13.625 14.1875 C12.635 14.5175 11.645 14.8475 10.625 15.1875 C7.625 13.1875 7.625 13.1875 6.9375 10.0625 C6.834375 9.11375 6.73125 8.165 6.625 7.1875 C-0.04837635 6.5272799 -0.04837635 6.5272799 -5.9375 9.0625 C-9.17770025 13.85236123 -8.85658634 18.53090118 -8.375 24.1875 C-7.20255696 26.73628922 -6.31202622 28.25047378 -4.375 30.1875 C-2.77451798 30.31285652 -1.16784072 30.36324787 0.4375 30.375 C1.31019531 30.38917969 2.18289062 30.40335938 3.08203125 30.41796875 C5.75149504 30.17603578 7.28799111 29.42887892 9.625 28.1875 C11.875 28.5625 11.875 28.5625 13.625 29.1875 C13.625 30.5075 13.625 31.8275 13.625 33.1875 C8.8972404 37.58920721 3.81882501 37.59453679 -2.35546875 37.52734375 C-6.81828927 37.02505994 -9.43777644 35.54555383 -12.375 32.1875 C-16.34088956 26.04676777 -16.03732806 19.31672563 -15.375 12.1875 C-13.66662549 6.87255707 -10.73113326 4.43142902 -6.375 1.1875 C-4.04904054 0.02452027 -2.58776769 0.02149309 0 0 Z " fill="#F61E1E" transform="translate(209.375,94.8125)"/>
<path d="M0 0 C2.90228418 3.30259924 3.91559053 5.88157448 4.25 10.3125 C3.90522549 15.39792403 2.30903095 18.48643296 -1 22.3125 C-4.7818711 25.50345374 -8.76249634 25.3334184 -13.4921875 25.28515625 C-18.11758873 24.75921499 -20.83494048 22.32575738 -23.8125 18.9375 C-26.24231423 14.97306626 -26.30894303 11.55690967 -26 7 C-24.10741259 1.74281274 -21.43796456 -0.83002532 -17 -4 C-10.92069608 -6.74549209 -4.83344337 -3.8447845 0 0 Z M-17 3 C-19.02518299 5.29520738 -19.9658803 6.90816965 -20.0625 10 C-19.80561109 12.91140764 -19.49269865 15.33704157 -17.72265625 17.71875 C-14.51902658 20.10149497 -10.80617105 19.4817938 -7 19 C-4.38239295 18.20426487 -4.38239295 18.20426487 -3 16 C-1.95811226 11.69353068 -1.5508109 9.29141866 -3 5.125 C-6.97197087 0.90478095 -12.06601129 -0.15227057 -17 3 Z " fill="#EA2221" transform="translate(405,107)"/>
<path d="M0 0 C0 -0.66 0 -1.32 0 -2 C0.99 -2.33 1.98 -2.66 3 -3 C3.66 -2.67 4.32 -2.34 5 -2 C5 2.29 5 6.58 5 11 C3.35 11 1.7 11 0 11 C-0.37125 10.030625 -0.7425 9.06125 -1.125 8.0625 C-2.69963671 4.76394124 -2.69963671 4.76394124 -5.875 4 C-9.20084334 4 -11.10358697 4.39088165 -14 6 C-16.47342266 9.71013399 -16.38503486 11.61060262 -16 16 C-14.87990597 18.27298446 -14.87990597 18.27298446 -13 20 C-10.63239638 20.55780476 -10.63239638 20.55780476 -8.0625 20.375 C-7.20785156 20.36210938 -6.35320313 20.34921875 -5.47265625 20.3359375 C-2.90795297 19.9874944 -1.26510271 19.20060165 1 18 C3.1875 18.1875 3.1875 18.1875 5 19 C5.33 19.99 5.66 20.98 6 22 C0.53120139 26.58196641 -3.19654079 27.36075547 -10.203125 27.27734375 C-14.52313075 26.84896329 -16.5857291 25.70296446 -20 23 C-23.36967157 18.32593944 -23.87427448 13.58564253 -23 8 C-21.64017987 4.20566319 -19.75956691 1.56967519 -16.5 -0.875 C-10.6473008 -3.50871464 -5.56451368 -3.70967579 0 0 Z " fill="#E52729" transform="translate(550,105)"/>
<path d="M0 0 C1.67542976 0.28604898 3.34385343 0.61781233 5 1 C5 3.97 5 6.94 5 10 C5.84304688 9.97679688 6.68609375 9.95359375 7.5546875 9.9296875 C9.19824219 9.90261719 9.19824219 9.90261719 10.875 9.875 C12.51082031 9.84019531 12.51082031 9.84019531 14.1796875 9.8046875 C17 10 17 10 19 12 C18.67 13.32 18.34 14.64 18 16 C13.71 16 9.42 16 5 16 C5.33 20.95 5.66 25.9 6 31 C11.00890086 30.38487182 16.00632136 29.7282448 21 29 C21.33 30.32 21.66 31.64 22 33 C16.41280144 36.88674683 11.80818647 38.16349718 5 37 C1.44319828 34.89495409 0.30531064 33.91593192 -1 30 C-1.06970052 27.60509014 -1.08448003 25.20832309 -1.0625 22.8125 C-1.05347656 21.54019531 -1.04445313 20.26789063 -1.03515625 18.95703125 C-1.02355469 17.98121094 -1.01195312 17.00539063 -1 16 C-2.98 16 -4.96 16 -7 16 C-7.33 14.35 -7.66 12.7 -8 11 C-4.535 10.505 -4.535 10.505 -1 10 C-1.01160156 9.36191406 -1.02320313 8.72382812 -1.03515625 8.06640625 C-1.04417969 7.24011719 -1.05320312 6.41382812 -1.0625 5.5625 C-1.07410156 4.73878906 -1.08570313 3.91507812 -1.09765625 3.06640625 C-1 1 -1 1 0 0 Z " fill="#EB2223" transform="translate(572,95)"/>
<path d="M0 0 C0.33 1.65 0.66 3.3 1 5 C-1.55293379 5.71482146 -3.83642609 6.0746809 -6.5 6.3125 C-10.39497837 7.07758504 -11.5861997 7.93633039 -14 11 C-15.14814997 13.29629994 -15.30769809 15.07698086 -15.5625 17.625 C-15.706875 19.06875 -15.85125 20.5125 -16 22 C-12.7 22 -9.4 22 -6 22 C-5.34 23.32 -4.68 24.64 -4 26 C-6 28 -6 28 -8.15478516 28.22705078 C-9.02409668 28.21657715 -9.8934082 28.20610352 -10.7890625 28.1953125 C-11.73007812 28.18886719 -12.67109375 28.18242187 -13.640625 28.17578125 C-14.62546875 28.15902344 -15.6103125 28.14226562 -16.625 28.125 C-17.61757813 28.11597656 -18.61015625 28.10695312 -19.6328125 28.09765625 C-22.08878134 28.07404116 -24.54427168 28.04110799 -27 28 C-27.38218767 26.34385343 -27.71395102 24.67542976 -28 23 C-27.67 22.67 -27.34 22.34 -27 22 C-25.35 22 -23.7 22 -22 22 C-22 16.39 -22 10.78 -22 5 C-23.65 4.67 -25.3 4.34 -27 4 C-27 0 -27 0 -26 -1 C-20.74229075 -1.42400881 -20.74229075 -1.42400881 -18 -1 C-16 1 -16 1 -15 3 C-14.2575 2.360625 -13.515 1.72125 -12.75 1.0625 C-7.86950781 -2.59786915 -5.65171979 -2.18361901 0 0 Z " fill="#EE2222" transform="translate(297,104)"/>
<path d="M0 0 C1.0625 1.75 1.0625 1.75 2 4 C1.67 5.32 1.34 6.64 1 8 C-6.26 8 -13.52 8 -21 8 C-18.83411375 14.03756812 -18.83411375 14.03756812 -15.3125 15 C-11.89089323 15 -9.18146382 14.45863662 -5.9296875 13.47265625 C-4 13 -4 13 0 13 C0.33 14.65 0.66 16.3 1 18 C-5.36443717 21.552244 -11.80876519 22.14734525 -19 21 C-22.60037674 19.05078941 -25.16565353 16.66869294 -27 13 C-27.07065617 10.95944995 -27.08421976 8.91665743 -27.0625 6.875 C-27.05347656 5.77929688 -27.04445313 4.68359375 -27.03515625 3.5546875 C-27.02355469 2.71164063 -27.01195312 1.86859375 -27 1 C-26.67 1 -26.34 1 -26 1 C-26 4.3 -26 7.6 -26 11 C-25.34 11 -24.68 11 -24 11 C-23.34 9.35 -22.68 7.7 -22 6 C-19.08327116 5.97299325 -16.16679323 5.95315763 -13.25 5.9375 C-12.425 5.92912109 -11.6 5.92074219 -10.75 5.91210938 C-9.95078125 5.90888672 -9.1515625 5.90566406 -8.328125 5.90234375 C-7.5949707 5.89710693 -6.86181641 5.89187012 -6.10644531 5.88647461 C-3.9538151 6.0024891 -2.0685865 6.40926729 0 7 C0 4.69 0 2.38 0 0 Z " fill="#D72B2E" transform="translate(333,111)"/>
<path d="M0 0 C0.33 1.65 0.66 3.3 1 5 C-1.55293379 5.71482146 -3.83642609 6.0746809 -6.5 6.3125 C-10.42677439 7.08383068 -11.55715337 7.92382276 -14 11 C-14.99 12.485 -14.99 12.485 -16 14 C-16.66 14 -17.32 14 -18 14 C-18 15.98 -18 17.96 -18 20 C-18.66 20 -19.32 20 -20 20 C-20 14.72 -20 9.44 -20 4 C-21.65 4 -23.3 4 -25 4 C-25 2.68 -25 1.36 -25 0 C-23.72125 -0.061875 -22.4425 -0.12375 -21.125 -0.1875 C-20.40570313 -0.22230469 -19.68640625 -0.25710937 -18.9453125 -0.29296875 C-18.30335938 -0.19628906 -17.66140625 -0.09960938 -17 0 C-16.01 1.485 -16.01 1.485 -15 3 C-14.2575 2.360625 -13.515 1.72125 -12.75 1.0625 C-7.86950781 -2.59786915 -5.65171979 -2.18361901 0 0 Z " fill="#E92122" transform="translate(297,104)"/>
<path d="M0 0 C3.79832463 3.91342538 3.18318073 8.18812051 3.125 13.3125 C3.12048828 14.06208984 3.11597656 14.81167969 3.11132812 15.58398438 C3.09956354 17.43102383 3.08162865 19.27802213 3.0625 21.125 C4.3825 21.455 5.7025 21.785 7.0625 22.125 C7.0625 23.445 7.0625 24.765 7.0625 26.125 C6.0725 26.125 5.0825 26.125 4.0625 26.125 C4.3925 24.805 4.7225 23.485 5.0625 22.125 C4.0725 22.125 3.0825 22.125 2.0625 22.125 C0.9047494 18.65174819 0.99383348 15.76432552 1.0625 12.125 C0.4025 11.795 -0.2575 11.465 -0.9375 11.125 C-0.2775 11.125 0.3825 11.125 1.0625 11.125 C0.7325 9.805 0.4025 8.485 0.0625 7.125 C-0.9275 7.785 -1.9175 8.445 -2.9375 9.125 C-3.2675 7.475 -3.5975 5.825 -3.9375 4.125 C-9.57031599 3.8853057 -14.48288831 4.73970179 -19.9375 6.125 C-20.5975 4.805 -21.2575 3.485 -21.9375 2.125 C-19.66217276 -1.00357496 -16.81416368 -1.7857145 -13.125 -2.5859375 C-8.19956827 -3.23679812 -4.27433458 -2.72829867 0 0 Z " fill="#F32323" transform="translate(254.9375,104.875)"/>
<path d="M0 0 C1.16402344 0.00773437 1.16402344 0.00773437 2.3515625 0.015625 C3.12242187 0.01046875 3.89328125 0.0053125 4.6875 0 C7.1757986 0.28874455 8.81890448 1.02423271 10.9765625 2.265625 C10.9765625 1.605625 10.9765625 0.945625 10.9765625 0.265625 C13.4515625 0.760625 13.4515625 0.760625 15.9765625 1.265625 C15.9765625 5.555625 15.9765625 9.845625 15.9765625 14.265625 C14.9865625 14.595625 13.9965625 14.925625 12.9765625 15.265625 C9.9765625 13.265625 9.9765625 13.265625 9.2890625 10.140625 C9.1859375 9.191875 9.0828125 8.243125 8.9765625 7.265625 C5.6765625 6.935625 2.3765625 6.605625 -1.0234375 6.265625 C-0.6934375 5.605625 -0.3634375 4.945625 -0.0234375 4.265625 C2.5390625 3.640625 2.5390625 3.640625 4.9765625 3.265625 C2.0065625 2.935625 -0.9634375 2.605625 -4.0234375 2.265625 C-2.0234375 0.265625 -2.0234375 0.265625 0 0 Z " fill="#D22B2E" transform="translate(207.0234375,94.734375)"/>
<path d="M0 0 C1.5 1.25 1.5 1.25 3 3 C3 4.32 3 5.64 3 7 C-7.395 7.495 -7.395 7.495 -18 8 C-18.33 9.65 -18.66 11.3 -19 13 C-18.34 13.33 -17.68 13.66 -17 14 C-17.33 15.32 -17.66 16.64 -18 18 C-20.46313739 16.17251097 -21.83428618 14.77023784 -22.48828125 11.73046875 C-22.72518293 9.48520654 -22.90361349 7.25544422 -23 5 C-22.01 4.67 -21.02 4.34 -20 4 C-18.33289654 2.50014391 -18.33289654 2.50014391 -17 1 C-17 1.66 -17 2.32 -17 3 C-16.36191406 2.91621094 -15.72382813 2.83242187 -15.06640625 2.74609375 C-14.24011719 2.64425781 -13.41382813 2.54242188 -12.5625 2.4375 C-11.73878906 2.33308594 -10.91507812 2.22867188 -10.06640625 2.12109375 C-9.38449219 2.08113281 -8.70257813 2.04117188 -8 2 C-7.67 2.33 -7.34 2.66 -7 3 C-4.67182036 3.36760731 -2.3381615 3.70241581 0 4 C0 2.68 0 1.36 0 0 Z " fill="#F41F20" transform="translate(515,111)"/>
<path d="M0 0 C4.9053984 -0.28855285 8.1554435 -0.26204794 12 3 C12 4.32 12 5.64 12 7 C12.66 7.33 13.32 7.66 14 8 C13.71640113 9.4391134 13.42278601 10.87625518 13.125 12.3125 C12.88136719 13.51326172 12.88136719 13.51326172 12.6328125 14.73828125 C12 17 12 17 10 20 C6.99609375 20.2578125 6.99609375 20.2578125 3.4375 20.125 C1.29241988 20.05451544 -0.85377012 20.00584008 -3 20 C-3.33 20.33 -3.66 20.66 -4 21 C-3.34 21.33 -2.68 21.66 -2 22 C-2 22.66 -2 23.32 -2 24 C-6.42326378 22.64844718 -8.40412982 20.80109562 -11 17 C-12.17664871 13.47005387 -12.19850603 10.70544587 -12 7 C-11.34 6.01 -10.68 5.02 -10 4 C-10 7.63 -10 11.26 -10 15 C-9.34 15 -8.68 15 -8 15 C-7.814375 13.081875 -7.814375 13.081875 -7.625 11.125 C-7.25 7.25 -7.25 7.25 -5 5 C-5.061875 6.216875 -5.12375 7.43375 -5.1875 8.6875 C-5.15793976 11.46123551 -4.90380887 13.30781161 -4.0625 16 C-1.61088758 18.37732113 -0.8180141 18.34578254 2.5 18.4375 C6.00154993 18.33828942 6.95070794 18.03286137 10 16 C10.97022152 11.77260622 11.35926277 9.20609645 10.125 5.0625 C6.88896133 1.92163894 3.36669078 2.10069937 -1 2 C-0.67 1.34 -0.34 0.68 0 0 Z " fill="#D52D2D" transform="translate(391,107)"/>
<path d="M0 0 C0.33 0.66 0.66 1.32 1 2 C-0.3303125 2.061875 -0.3303125 2.061875 -1.6875 2.125 C-5.17905946 3.04729873 -5.61697053 3.37964931 -7.6875 6.0625 C-8.450625 7.031875 -9.21375 8.00125 -10 9 C-10.99 9 -11.98 9 -13 9 C-13 13.95 -13 18.9 -13 24 C-14.32 23.34 -15.64 22.68 -17 22 C-17.45063706 8.15542806 -17.45063706 8.15542806 -13.5625 1.5625 C-9.35349622 -1.00396572 -4.80348696 -0.29814747 0 0 Z " fill="#FB1E1F" transform="translate(212,97)"/>
<path d="M0 0 C0.33 0 0.66 0 1 0 C1.495 8.415 1.495 8.415 2 17 C2.99 17 3.98 17 5 17 C4.67 18.65 4.34 20.3 4 22 C1.13275314 21.42655063 0.1385485 21.1385485 -2 19 C-1.67 18.67 -1.34 18.34 -1 18 C-1.99 17.67 -2.98 17.34 -4 17 C-3.814375 15.88625 -3.62875 14.7725 -3.4375 13.625 C-2.68319343 10.17431139 -2.68319343 10.17431139 -4 8 C-6.58605332 7.5316735 -6.58605332 7.5316735 -9.5625 7.375 C-10.57441406 7.30023438 -11.58632812 7.22546875 -12.62890625 7.1484375 C-13.80259766 7.07496094 -13.80259766 7.07496094 -15 7 C-15 6.34 -15 5.68 -15 5 C-12.69 5 -10.38 5 -8 5 C-7.67 4.34 -7.34 3.68 -7 3 C-6.21625 3.061875 -5.4325 3.12375 -4.625 3.1875 C-3.75875 3.125625 -2.8925 3.06375 -2 3 C-1.34 2.01 -0.68 1.02 0 0 Z " fill="#FA1C1C" transform="translate(255,110)"/>
<path d="M0 0 C0.33 0 0.66 0 1 0 C1 1.98 1 3.96 1 6 C3.31 6 5.62 6 8 6 C8 5.67 8 5.34 8 5 C9.6254308 5.14095064 11.25034051 5.28792087 12.875 5.4375 C13.77992188 5.51871094 14.68484375 5.59992188 15.6171875 5.68359375 C18 6 18 6 20 7 C20 6.01 20 5.02 20 4 C20.99 4.33 21.98 4.66 23 5 C23 6.65 23 8.3 23 10 C15.74 10 8.48 10 1 10 C0.34 11.32 -0.32 12.64 -1 14 C-1.66 14 -2.32 14 -3 14 C-3 10.7 -3 7.4 -3 4 C-2.34 4 -1.68 4 -1 4 C-0.67 2.68 -0.34 1.36 0 0 Z " fill="#F91C19" transform="translate(310,108)"/>
<path d="M0 0 C1.09651823 3.41139003 0.94215473 6.20655581 0.5625 9.75 C0.46066406 10.73484375 0.35882813 11.7196875 0.25390625 12.734375 C0.17011719 13.48203125 0.08632812 14.2296875 0 15 C0.99 15.33 1.98 15.66 3 16 C3.33 11.38 3.66 6.76 4 2 C4.66 2 5.32 2 6 2 C5.96519531 2.88042969 5.93039063 3.76085937 5.89453125 4.66796875 C5.86746094 5.82941406 5.84039062 6.99085937 5.8125 8.1875 C5.76029297 9.91033203 5.76029297 9.91033203 5.70703125 11.66796875 C6.0509195 15.57912447 7.2059851 18.2059851 10 21 C11.68183948 21.23287008 13.3712416 21.41264166 15.0625 21.5625 C15.98160156 21.64628906 16.90070313 21.73007813 17.84765625 21.81640625 C18.91306641 21.90728516 18.91306641 21.90728516 20 22 C20 22.33 20 22.66 20 23 C15.71 23 11.42 23 7 23 C7.66 24.32 8.32 25.64 9 27 C4.11234467 25.64231796 2.47408902 23.32965579 0 19 C-1.12050151 15.63849548 -1.13296652 13.03713274 -1.125 9.5 C-1.12757813 8.3553125 -1.13015625 7.210625 -1.1328125 6.03125 C-1 3 -1 3 0 0 Z " fill="#DA2C2D" transform="translate(195,104)"/>
<path d="M0 0 C2.01990439 1.19792541 2.01990439 1.19792541 4 2 C6.23470405 1.21690533 6.23470405 1.21690533 8 0 C6.8125 2 6.8125 2 5 4 C2.3125 4.25 2.3125 4.25 0 4 C-0.495 2.515 -0.495 2.515 -1 1 C-2.55966592 0.63355422 -4.12292651 0.28239138 -5.6875 -0.0625 C-6.99267578 -0.35833984 -6.99267578 -0.35833984 -8.32421875 -0.66015625 C-11.94337452 -1.11981545 -14.74436872 -0.62781564 -18 1 C-18 0.01 -18 -0.98 -18 -2 C-18.515625 -1.505 -19.03125 -1.01 -19.5625 -0.5 C-22.80680017 1.49649241 -25.26217334 1.21564385 -29 1 C-29 1.66 -29 2.32 -29 3 C-29.66 3 -30.32 3 -31 3 C-31.33 3.99 -31.66 4.98 -32 6 C-32.66 5.67 -33.32 5.34 -34 5 C-30.46331283 -0.30503076 -26.00193053 -2.72738609 -20.046875 -4.62109375 C-12.67900522 -5.98499331 -6.27511159 -3.63079601 0 0 Z " fill="#D26367" transform="translate(115,86)"/>
<path d="M0 0 C0.33 1.65 0.66 3.3 1 5 C-2.63788054 7.29186474 -5.7618285 7.26795835 -10 7.25 C-11.216875 7.25515625 -12.43375 7.2603125 -13.6875 7.265625 C-16.75288791 7.01981559 -18.43662952 6.6149234 -21 5 C-21 4.01 -21 3.02 -21 2 C-20.1646875 2.03480469 -20.1646875 2.03480469 -19.3125 2.0703125 C-12.59610125 2.22914625 -6.58100474 0 0 0 Z " fill="#EB2425" transform="translate(333,124)"/>
<path d="M0 0 C2.05078125 0.03255208 4.1015625 0.06510417 6.15234375 0.09765625 C6.15234375 0.42765625 6.15234375 0.75765625 6.15234375 1.09765625 C3.84234375 1.42765625 1.53234375 1.75765625 -0.84765625 2.09765625 C-0.84765625 2.75765625 -0.84765625 3.41765625 -0.84765625 4.09765625 C0.80234375 4.42765625 2.45234375 4.75765625 4.15234375 5.09765625 C4.15234375 10.37765625 4.15234375 15.65765625 4.15234375 21.09765625 C4.81234375 21.09765625 5.47234375 21.09765625 6.15234375 21.09765625 C6.15234375 19.11765625 6.15234375 17.13765625 6.15234375 15.09765625 C6.81234375 15.09765625 7.47234375 15.09765625 8.15234375 15.09765625 C8.15234375 17.73765625 8.15234375 20.37765625 8.15234375 23.09765625 C11.45234375 23.09765625 14.75234375 23.09765625 18.15234375 23.09765625 C18.81234375 24.41765625 19.47234375 25.73765625 20.15234375 27.09765625 C19.49234375 27.42765625 18.83234375 27.75765625 18.15234375 28.09765625 C17.82234375 27.10765625 17.49234375 26.11765625 17.15234375 25.09765625 C9.72734375 24.10765625 9.72734375 24.10765625 2.15234375 23.09765625 C2.15234375 17.48765625 2.15234375 11.87765625 2.15234375 6.09765625 C0.50234375 5.76765625 -1.14765625 5.43765625 -2.84765625 5.09765625 C-2.84765625 0.15051037 -2.84765625 0.15051037 0 0 Z " fill="#D02C2E" transform="translate(272.84765625,102.90234375)"/>
<path d="M0 0 C1.29550781 -0.03867188 1.29550781 -0.03867188 2.6171875 -0.078125 C5.57524649 0.30891076 6.91701784 1.29875995 9.125 3.25 C9.785 2.26 10.445 1.27 11.125 0.25 C14.26840842 3.66674829 14.78004062 6.67928825 15.125 11.25 C14.125 12.25 14.125 12.25 11.99194336 12.36352539 C11.07550049 12.35828857 10.15905762 12.35305176 9.21484375 12.34765625 C8.22548828 12.34443359 7.23613281 12.34121094 6.21679688 12.33789062 C5.17587891 12.32951172 4.13496094 12.32113281 3.0625 12.3125 C2.01771484 12.30798828 0.97292969 12.30347656 -0.10351562 12.29882812 C-2.6940666 12.28699913 -5.28450559 12.27051689 -7.875 12.25 C-7.875 11.92 -7.875 11.59 -7.875 11.25 C-0.945 11.25 5.985 11.25 13.125 11.25 C12.465 9.27 11.805 7.29 11.125 5.25 C10.795 6.24 10.465 7.23 10.125 8.25 C7.815 8.25 5.505 8.25 3.125 8.25 C3.125 7.92 3.125 7.59 3.125 7.25 C4.775 7.25 6.425 7.25 8.125 7.25 C6.45102259 4.3670389 5.5478683 3.38155903 2.3125 2.375 C-1.21934018 2.23649646 -3.61908119 2.9321281 -6.875 4.25 C-6.875 3.26 -6.875 2.27 -6.875 1.25 C-4.43545342 0.03022671 -2.72194151 0.04846187 0 0 Z " fill="#CA3031" transform="translate(504.875,106.75)"/>
<path d="M0 0 C2.45391569 3.68087353 2.22802759 6.44355588 2.125 10.6875 C2.11597656 11.38939453 2.10695313 12.09128906 2.09765625 12.81445312 C2.07413704 14.54311525 2.03826713 16.27160145 2 18 C3.32 18.66 4.64 19.32 6 20 C6 20.99 6 21.98 6 23 C3.39080172 24.30459914 1.41057385 24.1326594 -1.5 24.125 C-2.4796875 24.12757813 -3.459375 24.13015625 -4.46875 24.1328125 C-7 24 -7 24 -9 23 C-9 22.01 -9 21.02 -9 20 C-8.01 20 -7.02 20 -6 20 C-6 20.99 -6 21.98 -6 23 C-4.35 23 -2.7 23 -1 23 C-0.67 15.41 -0.34 7.82 0 0 Z " fill="#DB2624" transform="translate(479,108)"/>
<path d="M0 0 C0 0.66 0 1.32 0 2 C-2.31 2 -4.62 2 -7 2 C-7 2.66 -7 3.32 -7 4 C-3.04 4 0.92 4 5 4 C5 4.99 5 5.98 5 7 C0.38 7 -4.24 7 -9 7 C-9 6.34 -9 5.68 -9 5 C-10.32 5.33 -11.64 5.66 -13 6 C-12.67 9.63 -12.34 13.26 -12 17 C-14.0625 15.5 -14.0625 15.5 -16 13 C-16.32910209 10.13211038 -15.97456211 7.71206713 -15 5 C-10.35653176 0.23433523 -6.45266113 -0.12174832 0 0 Z " fill="#D12F30" transform="translate(247,113)"/>
<path d="M0 0 C2.64 0 5.28 0 8 0 C8.12375 0.639375 8.2475 1.27875 8.375 1.9375 C8.58125 2.618125 8.7875 3.29875 9 4 C9.66 4.33 10.32 4.66 11 5 C10.51917969 5.36738281 10.03835938 5.73476562 9.54296875 6.11328125 C7.38795083 8.74840443 7.49327654 10.82505636 7.3125 14.1875 C7.24675781 15.27417969 7.18101562 16.36085938 7.11328125 17.48046875 C7.07589844 18.31191406 7.03851563 19.14335938 7 20 C6.34 20 5.68 20 5 20 C5 14.72 5 9.44 5 4 C3.35 4 1.7 4 0 4 C0 2.68 0 1.36 0 0 Z " fill="#FA1C1A" transform="translate(272,104)"/>
<path d="M0 0 C0.66 0.33 1.32 0.66 2 1 C2 4.96 2 8.92 2 13 C1.01 13 0.02 13 -1 13 C-1 11.35 -1 9.7 -1 8 C-5.4281689 6.29685811 -9.45386205 5.65803269 -14.14453125 5.34375 C-15.06298828 5.17359375 -15.06298828 5.17359375 -16 5 C-16.33 4.34 -16.66 3.68 -17 3 C-12.05 3 -7.1 3 -2 3 C-2 2.34 -2 1.68 -2 1 C-1.34 0.67 -0.68 0.34 0 0 Z " fill="#FB1C1C" transform="translate(552,102)"/>
<path d="M0 0 C1.67542976 0.28604898 3.34385343 0.61781233 5 1 C5 3.97 5 6.94 5 10 C5.84304688 9.97679688 6.68609375 9.95359375 7.5546875 9.9296875 C9.19824219 9.90261719 9.19824219 9.90261719 10.875 9.875 C12.51082031 9.84019531 12.51082031 9.84019531 14.1796875 9.8046875 C17 10 17 10 19 12 C18.67 13.32 18.34 14.64 18 16 C14.37 16 10.74 16 7 16 C7 15.67 7 15.34 7 15 C10.3 15 13.6 15 17 15 C16.67 14.34 16.34 13.68 16 13 C13.21663762 12.56893307 13.21663762 12.56893307 10 12.4375 C4.09637046 12.09637046 4.09637046 12.09637046 3 11 C2.92820036 9.48071962 2.91607993 7.95832518 2.9375 6.4375 C2.94652344 5.61121094 2.95554687 4.78492187 2.96484375 3.93359375 C2.97644531 3.29550781 2.98804688 2.65742187 3 2 C2.01 2 1.02 2 0 2 C0 4.31 0 6.62 0 9 C-0.33 9 -0.66 9 -1 9 C-1.09765625 2.84765625 -1.09765625 2.84765625 -1 1 C-0.67 0.67 -0.34 0.34 0 0 Z " fill="#CC2D2D" transform="translate(572,95)"/>
<path d="M0 0 C0.66 0 1.32 0 2 0 C2.16435547 1.03060547 2.16435547 1.03060547 2.33203125 2.08203125 C2.49058594 2.98308594 2.64914062 3.88414063 2.8125 4.8125 C2.96332031 5.70582031 3.11414063 6.59914063 3.26953125 7.51953125 C4.05395393 10.18321256 4.88627799 11.25690322 7 13 C7.33 12.01 7.66 11.02 8 10 C7.01 9.67 6.02 9.34 5 9 C5.33 7.35 5.66 5.7 6 4 C6.28875 4.61875 6.5775 5.2375 6.875 5.875 C8.55700919 9.05212846 9.70938306 9.8953779 13.125 11.125 C14.548125 11.558125 14.548125 11.558125 16 12 C16 12.33 16 12.66 16 13 C14.35 13.33 12.7 13.66 11 14 C11 14.33 11 14.66 11 15 C14.63 15.33 18.26 15.66 22 16 C22 16.33 22 16.66 22 17 C9.28875027 18.03219171 9.28875027 18.03219171 4.8125 14.375 C1.32652763 10.7078261 0.09419808 7.16655591 -0.125 2.125 C-0.08375 1.42375 -0.0425 0.7225 0 0 Z " fill="#D82B2C" transform="translate(490,115)"/>
<path d="M0 0 C0.8353125 0.37125 0.8353125 0.37125 1.6875 0.75 C0.6975 1.41 -0.2925 2.07 -1.3125 2.75 C-0.69761719 2.78738281 -0.08273437 2.82476562 0.55078125 2.86328125 C1.35902344 2.92902344 2.16726563 2.99476562 3 3.0625 C3.80050781 3.12050781 4.60101563 3.17851563 5.42578125 3.23828125 C8.05022334 3.83206694 8.99570672 4.70780294 10.6875 6.75 C9.470625 6.54375 8.25375 6.3375 7 6.125 C3.3497822 5.67195878 0.92478361 5.78800993 -2.3125 7.75 C-2.6425 8.74 -2.9725 9.73 -3.3125 10.75 C-1.3325 10.75 0.6475 10.75 2.6875 10.75 C2.6875 11.08 2.6875 11.41 2.6875 11.75 C-0.2825 11.75 -3.2525 11.75 -6.3125 11.75 C-6.3125 9.77 -6.3125 7.79 -6.3125 5.75 C-6.6425 6.74 -6.9725 7.73 -7.3125 8.75 C-7.9725 8.75 -8.6325 8.75 -9.3125 8.75 C-7.925165 4.2096309 -5.3700603 -0.58054706 0 0 Z " fill="#DD2728" transform="translate(316.3125,103.25)"/>
<path d="M0 0 C2.31 0 4.62 0 7 0 C10.26326325 6.18302511 7.8908063 11.71764358 6 18 C5.01 17.67 4.02 17.34 3 17 C3.33 12.71 3.66 8.42 4 4 C2.68 3.67 1.36 3.34 0 3 C0 2.01 0 1.02 0 0 Z " fill="#FA1C1D" transform="translate(417,104)"/>
<path d="M0 0 C4.21697692 4.35754282 4.13243704 8.92576383 4.0625 14.6875 C4.05798828 15.38939453 4.05347656 16.09128906 4.04882812 16.81445312 C4.03706927 18.54300538 4.01913454 20.27151365 4 22 C5.32 22.66 6.64 23.32 8 24 C8 24.99 8 25.98 8 27 C6.35 26.67 4.7 26.34 3 26 C2.96261719 24.77023438 2.92523438 23.54046875 2.88671875 22.2734375 C2.82102972 20.64059599 2.75458341 19.00778482 2.6875 17.375 C2.66494141 16.56675781 2.64238281 15.75851563 2.61914062 14.92578125 C2.39627542 9.94170486 1.75292238 6.31723808 -1 2 C-3.88654493 0.6529457 -6.84597826 0.91238828 -10 1 C-10 0.34 -10 -0.32 -10 -1 C-5.9761071 -2.34129763 -3.92371185 -1.47139194 0 0 Z " fill="#D52C2C" transform="translate(440,104)"/>
<path d="M0 0 C1.32 0.33 2.64 0.66 4 1 C4 2.32 4 3.64 4 5 C-0.08419348 8.80252496 -3.77967468 9.12064866 -9.1875 9.0625 C-10.81751953 9.04896484 -10.81751953 9.04896484 -12.48046875 9.03515625 C-13.31191406 9.02355469 -14.14335937 9.01195312 -15 9 C-15 8.67 -15 8.34 -15 8 C-11.7 8 -8.4 8 -5 8 C-5.33 6.68 -5.66 5.36 -6 4 C-4.35 4 -2.7 4 -1 4 C-0.67 2.68 -0.34 1.36 0 0 Z " fill="#DC2829" transform="translate(367,123)"/>
<path d="M0 0 C4.82360189 -0.19294408 8.49646738 0.24252386 13 2 C13 2.66 13 3.32 13 4 C11.66666667 5.33333333 10.33333333 6.66666667 9 8 C7.76487921 10.13309192 7.76487921 10.13309192 7 12 C4.96564469 8.27034861 4 6.33094958 4 2 C2.68 2 1.36 2 0 2 C0 1.34 0 0.68 0 0 Z " fill="#FB1C1D" transform="translate(453,105)"/>
<path d="M0 0 C0.33 0.66 0.66 1.32 1 2 C2.0725 1.773125 3.145 1.54625 4.25 1.3125 C8 1 8 1 10.375 1.875 C12.92812906 5.21370724 12.82788903 8.89515335 13 13 C12.01 13 11.02 13 10 13 C9.67 10.36 9.34 7.72 9 5 C3.42169984 4.87530901 3.42169984 4.87530901 -2 6 C-1.34 4.02 -0.68 2.04 0 0 Z " fill="#F81C1D" transform="translate(429,103)"/>
<path d="M0 0 C-3.63 0.66 -7.26 1.32 -11 2 C-11 2.66 -11 3.32 -11 4 C-9.62714844 3.98259766 -9.62714844 3.98259766 -8.2265625 3.96484375 C-6.44378906 3.95130859 -6.44378906 3.95130859 -4.625 3.9375 C-3.44164062 3.92589844 -2.25828125 3.91429688 -1.0390625 3.90234375 C2 4 2 4 4 5 C3.67 5.66 3.34 6.32 3 7 C2.030625 6.79375 1.06125 6.5875 0.0625 6.375 C-4.52772745 5.68834712 -8.58126458 6.78760321 -13 8 C-13.66 6.68 -14.32 5.36 -15 4 C-12.63613154 0.74968087 -9.74303696 0.17741981 -6.03515625 -0.765625 C-4 -1 -4 -1 0 0 Z " fill="#D32C2B" transform="translate(248,103)"/>
<path d="M0 0 C0.8971875 0.4021875 0.8971875 0.4021875 1.8125 0.8125 C2.1425 1.8025 2.4725 2.7925 2.8125 3.8125 C-1.8125 7.8125 -1.8125 7.8125 -5.1875 7.8125 C-5.1875 6.8225 -5.1875 5.8325 -5.1875 4.8125 C-9.1475 4.4825 -13.1075 4.1525 -17.1875 3.8125 C-16.8575 3.1525 -16.5275 2.4925 -16.1875 1.8125 C-15.17429687 1.84730469 -15.17429687 1.84730469 -14.140625 1.8828125 C-13.24859375 1.90085937 -12.3565625 1.91890625 -11.4375 1.9375 C-10.55578125 1.96070312 -9.6740625 1.98390625 -8.765625 2.0078125 C-5.44518856 1.75626429 -3.24899644 -0.27848541 0 0 Z " fill="#D8292A" transform="translate(553.1875,123.1875)"/>
<path d="M0 0 C0.33 0 0.66 0 1 0 C1 4.29 1 8.58 1 13 C-0.65 13 -2.3 13 -4 13 C-4.37125 12.030625 -4.7425 11.06125 -5.125 10.0625 C-6.69587144 6.77620557 -6.69587144 6.77620557 -9.8125 6 C-13.28892034 6 -15.79235698 6.7016683 -19 8 C-19 6.35 -19 4.7 -19 3 C-16.89455987 3.28232721 -14.79066411 3.5761898 -12.6875 3.875 C-11.51574219 4.03742188 -10.34398437 4.19984375 -9.13671875 4.3671875 C-6 5 -6 5 -3 7 C-2.8125 9.625 -2.8125 9.625 -3 12 C-2.01 12 -1.02 12 0 12 C0 8.04 0 4.08 0 0 Z " fill="#D02E2D" transform="translate(554,103)"/>
<path d="M0 0 C2.3431213 0.25561323 4.67843403 0.59270772 7 1 C8.65497356 4.30994713 8.10084335 7.99123 8.0625 11.625 C8.05798828 12.42679688 8.05347656 13.22859375 8.04882812 14.0546875 C8.03703168 16.03649006 8.01909605 18.01825433 8 20 C7.01 20 6.02 20 5 20 C5 21.32 5 22.64 5 24 C6.65 24 8.3 24 10 24 C10 24.33 10 24.66 10 25 C8.02 25 6.04 25 4 25 C2.9375 23.125 2.9375 23.125 2 21 C2.33 20.34 2.66 19.68 3 19 C4.32 19 5.64 19 7 19 C6.67 13.39 6.34 7.78 6 2 C3.69 2 1.38 2 -1 2 C-0.67 1.34 -0.34 0.68 0 0 Z " fill="#D22B2D" transform="translate(431,107)"/>
<path d="M0 0 C1.22589844 0.01353516 1.22589844 0.01353516 2.4765625 0.02734375 C3.41628906 0.04474609 3.41628906 0.04474609 4.375 0.0625 C4.375 0.3925 4.375 0.7225 4.375 1.0625 C1.735 1.0625 -0.905 1.0625 -3.625 1.0625 C-3.955 2.3825 -4.285 3.7025 -4.625 5.0625 C-1.655 5.0625 1.315 5.0625 4.375 5.0625 C4.375 5.3925 4.375 5.7225 4.375 6.0625 C3.34439453 6.22685547 3.34439453 6.22685547 2.29296875 6.39453125 C1.39191406 6.55308594 0.49085938 6.71164063 -0.4375 6.875 C-1.77748047 7.10123047 -1.77748047 7.10123047 -3.14453125 7.33203125 C-5.80821256 8.11645393 -6.88190322 8.94877799 -8.625 11.0625 C-8.295 9.7425 -7.965 8.4225 -7.625 7.0625 C-8.615 7.0625 -9.605 7.0625 -10.625 7.0625 C-11.285 6.7325 -11.945 6.4025 -12.625 6.0625 C-5.38364553 -0.07690922 -5.38364553 -0.07690922 0 0 Z " fill="#D22B2D" transform="translate(357.625,94.9375)"/>
<path d="M0 0 C0.598125 0.309375 1.19625 0.61875 1.8125 0.9375 C4.08956772 2.10209704 4.08956772 2.10209704 7 3 C8.38576923 4.62332967 9.72641268 6.28724465 11 8 C12.65 7.67 14.3 7.34 16 7 C16.33 6.01 16.66 5.02 17 4 C19.0625 3.3125 19.0625 3.3125 21 3 C21.33 3.66 21.66 4.32 22 5 C19.36 7.31 16.72 9.62 14 12 C10.218976 10.109488 7.84554106 8.25697673 4.75 5.4375 C3.85796875 4.63183594 2.9659375 3.82617188 2.046875 2.99609375 C1.37140625 2.33738281 0.6959375 1.67867187 0 1 C0 0.67 0 0.34 0 0 Z " fill="#C66467" transform="translate(105,144)"/>
<path d="M0 0 C4.29 0.66 8.58 1.32 13 2 C13.33 3.32 13.66 4.64 14 6 C10.7 6 7.4 6 4 6 C3.34 4.68 2.68 3.36 2 2 C1.34 2 0.68 2 0 2 C0 1.34 0 0.68 0 0 Z " fill="#FA1D20" transform="translate(348,125)"/>
<path d="M0 0 C1.134375 0.020625 2.26875 0.04125 3.4375 0.0625 C3.4375 0.3925 3.4375 0.7225 3.4375 1.0625 C1.4575 1.0625 -0.5225 1.0625 -2.5625 1.0625 C-2.2325 2.0525 -1.9025 3.0425 -1.5625 4.0625 C-0.5725 4.3925 0.4175 4.7225 1.4375 5.0625 C1.49168326 7.14554538 1.53037551 9.22899768 1.5625 11.3125 C1.58570313 12.47265625 1.60890625 13.6328125 1.6328125 14.828125 C1.4375 18.0625 1.4375 18.0625 -0.5625 22.0625 C-0.5625 16.7825 -0.5625 11.5025 -0.5625 6.0625 C-1.8825 5.7325 -3.2025 5.4025 -4.5625 5.0625 C-4.5625 0.08004386 -4.5625 0.08004386 0 0 Z " fill="#C93030" transform="translate(419.5625,102.9375)"/>
<path d="M0 0 C0 4.62 0 9.24 0 14 C-0.99 14.495 -0.99 14.495 -2 15 C-4.3992233 10.35150485 -4.19957409 6.08913926 -4 1 C-1 0 -1 0 0 0 Z " fill="#F8201E" transform="translate(347,109)"/>
<path d="M0 0 C0.99 0 1.98 0 3 0 C2.98839844 0.68707031 2.97679687 1.37414062 2.96484375 2.08203125 C2.95582031 2.98308594 2.94679688 3.88414063 2.9375 4.8125 C2.92589844 5.70582031 2.91429687 6.59914063 2.90234375 7.51953125 C2.88990033 10.13413791 2.88990033 10.13413791 4 13 C4.99 13 5.98 13 7 13 C7 13.66 7 14.32 7 15 C5.35 15.66 3.7 16.32 2 17 C-0.44064587 11.35600642 -0.19289099 6.02248522 0 0 Z " fill="#F71E1C" transform="translate(529,112)"/>
<path d="M0 0 C1.69921875 1.51953125 1.69921875 1.51953125 3 3 C-3.06696699 3.77040851 -8.88514973 4.09706112 -15 4 C-15 3.34 -15 2.68 -15 2 C-9.87490686 0.56137736 -5.37479371 -0.52694056 0 0 Z " fill="#EF2122" transform="translate(252,103)"/>
<path d="M0 0 C0.99 0.495 0.99 0.495 2 1 C3.70363822 1.22622081 5.41328701 1.40888473 7.125 1.5625 C8.03507812 1.64628906 8.94515625 1.73007813 9.8828125 1.81640625 C10.58148438 1.87699219 11.28015625 1.93757813 12 2 C12 3.32 12 4.64 12 6 C9.03 6 6.06 6 3 6 C3 5.34 3 4.68 3 4 C2.01 3.67 1.02 3.34 0 3 C0 2.01 0 1.02 0 0 Z " fill="#F91D1E" transform="translate(386,125)"/>
<path d="M0 0 C0.33 0.66 0.66 1.32 1 2 C-7.42857143 3.28571429 -7.42857143 3.28571429 -12 2 C-12 3.65 -12 5.3 -12 7 C-12.99 7 -13.98 7 -15 7 C-15 5.35 -15 3.7 -15 2 C-9.49637792 -0.41386933 -6.03148746 -1.60019055 0 0 Z " fill="#DF2624" transform="translate(547,103)"/>
<path d="M0 0 C0.625 1.8125 0.625 1.8125 1 4 C0.01 5.485 0.01 5.485 -1 7 C0.32 7.33 1.64 7.66 3 8 C0.36095629 9.41377341 -2.07120629 10.37240135 -5 11 C-4.34 9.68 -3.68 8.36 -3 7 C-4.32 7 -5.64 7 -7 7 C-7 7.66 -7 8.32 -7 9 C-8.32 9 -9.64 9 -11 9 C-11 8.34 -11 7.68 -11 7 C-10.16855469 6.69255859 -10.16855469 6.69255859 -9.3203125 6.37890625 C-8.59585938 6.10949219 -7.87140625 5.84007813 -7.125 5.5625 C-6.40570313 5.29566406 -5.68640625 5.02882813 -4.9453125 4.75390625 C-2.96351155 4.02083146 -2.96351155 4.02083146 -1 3 C-0.67 2.01 -0.34 1.02 0 0 Z " fill="#E32726" transform="translate(252,120)"/>
<path d="M0 0 C3.3 0 6.6 0 10 0 C10 1.98 10 3.96 10 6 C9.34 6 8.68 6 8 6 C8 5.34 8 4.68 8 4 C5.03 4 2.06 4 -1 4 C-0.67 2.68 -0.34 1.36 0 0 Z " fill="#EE2022" transform="translate(354,96)"/>
<path d="M0 0 C1.5 1.3125 1.5 1.3125 3 3 C3 3.99 3 4.98 3 6 C-1.29 6 -5.58 6 -10 6 C-10 5.01 -10 4.02 -10 3 C-10.99 2.67 -11.98 2.34 -13 2 C-11.33388095 1.957279 -9.66617115 1.95936168 -8 2 C-7.67 2.33 -7.34 2.66 -7 3 C-4.67182036 3.36760731 -2.3381615 3.70241581 0 4 C0 2.68 0 1.36 0 0 Z " fill="#F91A1B" transform="translate(515,111)"/>
<path d="M0 0 C0.99 0 1.98 0 3 0 C3 3.63 3 7.26 3 11 C2.01 11 1.02 11 0 11 C0 9.68 0 8.36 0 7 C-0.66 7 -1.32 7 -2 7 C-2 5.68 -2 4.36 -2 3 C-1.34 3 -0.68 3 0 3 C0 2.01 0 1.02 0 0 Z " fill="#F61E20" transform="translate(219,97)"/>
<path d="M0 0 C0.99 0.33 1.98 0.66 3 1 C3 1.99 3 2.98 3 4 C-1.22949995 6.41685712 -4.12335991 7.34833144 -9 7 C-7.1875 5 -7.1875 5 -5 3 C-4.01 3 -3.02 3 -2 3 C-2 2.34 -2 1.68 -2 1 C-1.34 0.67 -0.68 0.34 0 0 Z " fill="#F61C1C" transform="translate(588,124)"/>
<path d="M0 0 C2.0625 0.4375 2.0625 0.4375 4 1 C4 2.32 4 3.64 4 5 C-0.08419348 8.80252496 -3.77967468 9.12064866 -9.1875 9.0625 C-10.81751953 9.04896484 -10.81751953 9.04896484 -12.48046875 9.03515625 C-13.31191406 9.02355469 -14.14335937 9.01195312 -15 9 C-15 8.67 -15 8.34 -15 8 C-11.37 8 -7.74 8 -4 8 C-4 7.34 -4 6.68 -4 6 C-3.195625 5.87625 -2.39125 5.7525 -1.5625 5.625 C-0.716875 5.41875 0.12875 5.2125 1 5 C1.33 4.34 1.66 3.68 2 3 C1.01 2.34 0.02 1.68 -1 1 C-0.67 0.67 -0.34 0.34 0 0 Z " fill="#D0272B" transform="translate(219,123)"/>
<path d="M0 0 C0.99 0 1.98 0 3 0 C2.68817931 1.41681634 2.37551263 2.83344651 2.0625 4.25 C1.88847656 5.03890625 1.71445312 5.8278125 1.53515625 6.640625 C1.052444 8.76878703 0.53836822 10.88532842 0 13 C-0.66 13 -1.32 13 -2 13 C-2 9.37 -2 5.74 -2 2 C-1.34 2 -0.68 2 0 2 C0 1.34 0 0.68 0 0 Z " fill="#F81E1E" transform="translate(383,109)"/>
<path d="M0 0 C0 0.99 0 1.98 0 3 C0.66 3.66 1.32 4.32 2 5 C-1.3 4.67 -4.6 4.34 -8 4 C-8 2.68 -8 1.36 -8 0 C-4.71023192 -1.09658936 -3.28696233 -0.79953138 0 0 Z " fill="#F11815" transform="translate(444,127)"/>
<path d="M0 0 C1.32 0 2.64 0 4 0 C4.33 1.32 4.66 2.64 5 4 C-0.56109878 7.86859046 -5.21239219 9.06715589 -12 8 C-12.66 7.34 -13.32 6.68 -14 6 C-13.02160156 6.03480469 -13.02160156 6.03480469 -12.0234375 6.0703125 C-6.91301097 6.17583753 -2.79574967 6.01926302 2 4 C2 3.01 2 2.02 2 1 C1.34 0.67 0.68 0.34 0 0 Z " fill="#D32C2F" transform="translate(589,124)"/>
<path d="M0 0 C0.33 0.66 0.66 1.32 1 2 C0.67 2.66 0.34 3.32 0 4 C0.66 4.66 1.32 5.32 2 6 C1.525625 6.45375 1.05125 6.9075 0.5625 7.375 C-2.2192913 10.26806296 -2.24476351 12.72138021 -2.5625 16.625 C-2.68818359 18.12933594 -2.68818359 18.12933594 -2.81640625 19.6640625 C-2.87699219 20.43492188 -2.93757813 21.20578125 -3 22 C-3.33 22 -3.66 22 -4 22 C-4.05423638 20.08364783 -4.09289963 18.16685075 -4.125 16.25 C-4.14820313 15.18265625 -4.17140625 14.1153125 -4.1953125 13.015625 C-4.00487687 10.07529894 -3.52670104 8.47638122 -2 6 C-2.99 5.67 -3.98 5.34 -5 5 C-4.34 5 -3.68 5 -3 5 C-2.87625 4.360625 -2.7525 3.72125 -2.625 3.0625 C-2.41875 2.381875 -2.2125 1.70125 -2 1 C-1.34 0.67 -0.68 0.34 0 0 Z " fill="#D52A29" transform="translate(428,104)"/>
<path d="M0 0 C1.65 0.33 3.3 0.66 5 1 C5 5.29 5 9.58 5 14 C3.68 14.33 2.36 14.66 1 15 C0.34 14.34 -0.32 13.68 -1 13 C-0.625 10.875 -0.625 10.875 0 9 C0 9.99 0 10.98 0 12 C0.99 12 1.98 12 3 12 C3.33 8.7 3.66 5.4 4 2 C2.68 2 1.36 2 0 2 C0 1.34 0 0.68 0 0 Z " fill="#BE3537" transform="translate(366,95)"/>
<path d="M0 0 C0.99 0.33 1.98 0.66 3 1 C2.67 1.99 2.34 2.98 2 4 C4.97 4 7.94 4 11 4 C11 3.34 11 2.68 11 2 C10.34 1.34 9.68 0.68 9 0 C10.32 0.33 11.64 0.66 13 1 C13 2.32 13 3.64 13 5 C12 6 12 6 9.56640625 6.1328125 C8.07947266 6.12894531 8.07947266 6.12894531 6.5625 6.125 C5.07943359 6.12886719 5.07943359 6.12886719 3.56640625 6.1328125 C1 6 1 6 -1 5 C-0.67 3.35 -0.34 1.7 0 0 Z " fill="#CE2E31" transform="translate(453,126)"/>
<path d="M0 0 C0.99 0.495 0.99 0.495 2 1 C2 1.66 2 2.32 2 3 C3.65 3.33 5.3 3.66 7 4 C7 6.64 7 9.28 7 12 C2.5991297 8.17819158 1.19194469 5.52628901 0 0 Z " fill="#D76162" transform="translate(79,112)"/>
<path d="M0 0 C0.66 0 1.32 0 2 0 C2 0.66 2 1.32 2 2 C5.96 2 9.92 2 14 2 C14 2.99 14 3.98 14 5 C9.38 5 4.76 5 0 5 C0 3.35 0 1.7 0 0 Z " fill="#DD2728" transform="translate(238,115)"/>
<path d="M0 0 C2.69481258 2.69481258 2.96558486 4.54399943 3.25 8.3125 C2.98129892 12.27584099 1.98898226 14.60215531 0 18 C-0.33 18 -0.66 18 -1 18 C-1 16.35 -1 14.7 -1 13 C-0.34 13 0.32 13 1 13 C0.67 8.71 0.34 4.42 0 0 Z " fill="#D12C31" transform="translate(406,109)"/>
<path d="M0 0 C2.125 0.375 2.125 0.375 4 1 C3.67 1.66 3.34 2.32 3 3 C2.34 3 1.68 3 1 3 C1.33 5.64 1.66 8.28 2 11 C1.01 10.67 0.02 10.34 -1 10 C-1.9765625 3.9453125 -1.9765625 3.9453125 -2 2 C-1.34 1.34 -0.68 0.68 0 0 Z " fill="#FB1C1A" transform="translate(235,117)"/>
<path d="M0 0 C0 4.62 0 9.24 0 14 C-0.66 14 -1.32 14 -2 14 C-2.07347656 13.06027344 -2.07347656 13.06027344 -2.1484375 12.1015625 C-2.22320312 11.28429687 -2.29796875 10.46703125 -2.375 9.625 C-2.44460938 8.81289062 -2.51421875 8.00078125 -2.5859375 7.1640625 C-2.82892588 4.79665809 -2.82892588 4.79665809 -5 3 C-2.25 0 -2.25 0 0 0 Z " fill="#FA1D1B" transform="translate(479,108)"/>
<path d="M0 0 C2.64 0 5.28 0 8 0 C8.33 1.32 8.66 2.64 9 4 C8.2575 3.814375 7.515 3.62875 6.75 3.4375 C4.05009037 3.00796892 2.55368923 3.14877026 0 4 C0 2.68 0 1.36 0 0 Z " fill="#EA1F22" transform="translate(272,104)"/>
<path d="M0 0 C0.33 0 0.66 0 1 0 C1 5.28 1 10.56 1 16 C2.32 16.33 3.64 16.66 5 17 C5 18.32 5 19.64 5 21 C4.01 21 3.02 21 2 21 C2.33 19.68 2.66 18.36 3 17 C2.01 17 1.02 17 0 17 C0 11.39 0 5.78 0 0 Z " fill="#CB2E2F" transform="translate(257,110)"/>
<path d="M0 0 C0.66 0.33 1.32 0.66 2 1 C2 4.96 2 8.92 2 13 C1.01 13 0.02 13 -1 13 C-0.54177532 9.53058454 -0.10868317 6.32604951 1 3 C0.01 3 -0.98 3 -2 3 C-2 2.34 -2 1.68 -2 1 C-1.34 0.67 -0.68 0.34 0 0 Z " fill="#EE2123" transform="translate(552,102)"/>
<path d="M0 0 C0.99 0.33 1.98 0.66 3 1 C3 1.66 3 2.32 3 3 C4.65 3.33 6.3 3.66 8 4 C8 4.33 8 4.66 8 5 C4.04 5 0.08 5 -4 5 C-2.68 3.35 -1.36 1.7 0 0 Z " fill="#F91C1A" transform="translate(318,102)"/>
<path d="M0 0 C6.30719307 0.92065781 9.91921368 1.9977458 14 7 C13.67 7.66 13.34 8.32 13 9 C12.484375 8.38125 11.96875 7.7625 11.4375 7.125 C8.45541385 4.52523258 5.81553799 3.88050877 2 3 C2 2.34 2 1.68 2 1 C1.34 0.67 0.68 0.34 0 0 Z " fill="#D7292B" transform="translate(319,102)"/>
<path d="M0 0 C2.97 0 5.94 0 9 0 C9.33 0.66 9.66 1.32 10 2 C5.58774263 3.47075246 2.51718381 4.36884358 -2 3 C-1.34 2.67 -0.68 2.34 0 2 C0 1.34 0 0.68 0 0 Z " fill="#FB1B1E" transform="translate(203,97)"/>
<path d="M0 0 C0.99 0.33 1.98 0.66 3 1 C3.3721042 2.32303717 3.70630173 3.65737935 4 5 C4.66 5.33 5.32 5.66 6 6 C6 6.66 6 7.32 6 8 C2.66272214 6.82744291 0.22562513 5.81131596 -2 3 C-2 2.34 -2 1.68 -2 1 C-1.34 0.67 -0.68 0.34 0 0 Z " fill="#E12829" transform="translate(383,123)"/>
<path d="M0 0 C-0.33 0.99 -0.66 1.98 -1 3 C0.32 3.66 1.64 4.32 3 5 C1.35 6.32 -0.3 7.64 -2 9 C-2 7.35 -2 5.7 -2 4 C-4.475 5.485 -4.475 5.485 -7 7 C-3.86206897 0 -3.86206897 0 0 0 Z " fill="#D82A2A" transform="translate(203,97)"/>
<path d="M0 0 C0 1.32 0 2.64 0 4 C-0.99 4.66 -1.98 5.32 -3 6 C-3.99 5.67 -4.98 5.34 -6 5 C-5.01 4.67 -4.02 4.34 -3 4 C-3 3.01 -3 2.02 -3 1 C-3.99 0.67 -4.98 0.34 -6 0 C-3.50907189 -1.24546405 -2.58919267 -0.7767578 0 0 Z " fill="#D22E34" transform="translate(518,125)"/>
<path d="M0 0 C0.33 0.66 0.66 1.32 1 2 C1.99 2 2.98 2 4 2 C3.67 3.65 3.34 5.3 3 7 C0.13275314 6.42655063 -0.8614515 6.1385485 -3 4 C-2.34 3.67 -1.68 3.34 -1 3 C-0.67 2.01 -0.34 1.02 0 0 Z " fill="#EE1E22" transform="translate(256,125)"/>
<path d="M0 0 C-2.46153846 4.8 -2.46153846 4.8 -5.1875 5.8125 C-5.785625 5.874375 -6.38375 5.93625 -7 6 C-7 4.35 -7 2.7 -7 1 C-3.375 -1.125 -3.375 -1.125 0 0 Z " fill="#FA1D1E" transform="translate(352,101)"/>
<path d="M0 0 C1.32 1.32 2.64 2.64 4 4 C3.01 5.485 3.01 5.485 2 7 C1.67 6.34 1.34 5.68 1 5 C0.67 5.99 0.34 6.98 0 8 C-2.31 8 -4.62 8 -7 8 C-7 7.67 -7 7.34 -7 7 C-5.02 7 -3.04 7 -1 7 C-0.67 4.69 -0.34 2.38 0 0 Z " fill="#E42827" transform="translate(515,107)"/>
<path d="M0 0 C3.25031913 2.36386846 3.82258019 5.25696304 4.765625 8.96484375 C5.02679515 11.23267118 4.67788667 12.83560469 4 15 C2.24265549 10.02638346 0.67415387 5.2584002 0 0 Z " fill="#CC6864" transform="translate(154,91)"/>
<path d="M0 0 C0.33 0 0.66 0 1 0 C1.125 6.625 1.125 6.625 0 10 C-0.99 10 -1.98 10 -3 10 C-3 9.01 -3 8.02 -3 7 C-3.66 7 -4.32 7 -5 7 C-5 6.34 -5 5.68 -5 5 C-2.525 5.495 -2.525 5.495 0 6 C0 4.02 0 2.04 0 0 Z " fill="#EF2324" transform="translate(369,97)"/>
<path d="M0 0 C0.99 0 1.98 0 3 0 C3 0.66 3 1.32 3 2 C5.64 2 8.28 2 11 2 C9.4375 3.5625 9.4375 3.5625 7 5 C3.25 4.6875 3.25 4.6875 0 4 C0 2.68 0 1.36 0 0 Z " fill="#E52020" transform="translate(575,124)"/>
<path d="M0 0 C0.66 0.33 1.32 0.66 2 1 C2 1.99 2 2.98 2 4 C1.34 4 0.68 4 0 4 C0 4.66 0 5.32 0 6 C0.66 6 1.32 6 2 6 C2.66 7.32 3.32 8.64 4 10 C0.34683329 8.75023244 -0.78065836 8.32901247 -3 5 C-2.34 5 -1.68 5 -1 5 C-0.67 3.35 -0.34 1.7 0 0 Z " fill="#E22526" transform="translate(348,121)"/>
<path d="M0 0 C1.32 0 2.64 0 4 0 C3.34 1.32 2.68 2.64 2 4 C-0.31 4 -2.62 4 -5 4 C-4.67 3.34 -4.34 2.68 -4 2 C-2.68 2 -1.36 2 0 2 C0 1.34 0 0.68 0 0 Z " fill="#FC1C1C" transform="translate(245,127)"/>
<path d="M0 0 C-1.5625 2 -1.5625 2 -4 4 C-7.75 4.25 -7.75 4.25 -11 4 C-7.35237315 0.18657193 -5.28949249 -0.11498897 0 0 Z " fill="#D36563" transform="translate(134,82)"/>
<path d="M0 0 C3.875 1.75 3.875 1.75 5 4 C4.34 4 3.68 4 3 4 C2.67 5.32 2.34 6.64 2 8 C2 7.01 2 6.02 2 5 C1.01 4.67 0.02 4.34 -1 4 C-0.67 2.68 -0.34 1.36 0 0 Z " fill="#ED2427" transform="translate(401,105)"/>
<path d="M0 0 C0.99 0.33 1.98 0.66 3 1 C-0.17320782 4.53586014 -2.16743695 6.58578031 -7 7 C-6 5 -6 5 -3 4 C-2.67 3.01 -2.34 2.02 -2 1 C-1.34 0.67 -0.68 0.34 0 0 Z " fill="#D46464" transform="translate(124,147)"/>
<path d="M0 0 C0.598125 0.350625 1.19625 0.70125 1.8125 1.0625 C0.1625 2.3825 -1.4875 3.7025 -3.1875 5.0625 C-3.1875 4.0725 -3.1875 3.0825 -3.1875 2.0625 C-3.8475 2.0625 -4.5075 2.0625 -5.1875 2.0625 C-5.1875 1.4025 -5.1875 0.7425 -5.1875 0.0625 C-2.1875 -0.9375 -2.1875 -0.9375 0 0 Z " fill="#D96365" transform="translate(142.1875,130.9375)"/>
<path d="M0 0 C1.32 0.66 2.64 1.32 4 2 C4 2.99 4 3.98 4 5 C2.35 4.67 0.7 4.34 -1 4 C-0.67 2.68 -0.34 1.36 0 0 Z " fill="#E42A26" transform="translate(444,126)"/>
<path d="M0 0 C0.33 0 0.66 0 1 0 C1 1.65 1 3.3 1 5 C1.66 5 2.32 5 3 5 C2.67 5.99 2.34 6.98 2 8 C1.01 8 0.02 8 -1 8 C-1.125 2.25 -1.125 2.25 0 0 Z " fill="#E92827" transform="translate(344,102)"/>
<path d="M0 0 C2.475 0.495 2.475 0.495 5 1 C5 2.32 5 3.64 5 5 C4.01 5 3.02 5 2 5 C1.34 3.35 0.68 1.7 0 0 Z " fill="#EE2220" transform="translate(420,104)"/>
<path d="M0 0 C0.99 0.99 1.98 1.98 3 3 C1.68 3.99 0.36 4.98 -1 6 C-1.66 4.68 -2.32 3.36 -3 2 C-2.01 1.34 -1.02 0.68 0 0 Z " fill="#D96365" transform="translate(132,138)"/>
<path d="M0 0 C2.0625 0.4375 2.0625 0.4375 4 1 C4 2.32 4 3.64 4 5 C3.01 5.66 2.02 6.32 1 7 C1.33 5.68 1.66 4.36 2 3 C1.01 2.34 0.02 1.68 -1 1 C-0.67 0.67 -0.34 0.34 0 0 Z " fill="#CD3434" transform="translate(219,123)"/>
<path d="M0 0 C0.33 0.66 0.66 1.32 1 2 C0.01 2.495 0.01 2.495 -1 3 C-1 3.66 -1 4.32 -1 5 C-0.34 5.66 0.32 6.32 1 7 C-0.98 7.99 -0.98 7.99 -3 9 C-3.33 7.02 -3.66 5.04 -4 3 C-2.68 2.01 -1.36 1.02 0 0 Z " fill="#D82529" transform="translate(286,104)"/>
<path d="M0 0 C0.33 0.99 0.66 1.98 1 3 C1.99 3 2.98 3 4 3 C4.33 2.01 4.66 1.02 5 0 C5 1.65 5 3.3 5 5 C3.68 5 2.36 5 1 5 C0.67 3.35 0.34 1.7 0 0 Z " fill="#D0262D" transform="translate(365,104)"/>
</svg>
