<?xml version="1.0" encoding="UTF-8"?>
<svg version="1.1" xmlns="http://www.w3.org/2000/svg" width="547" height="328">
<path d="M0 0 C1.32958028 0.67412053 2.66198455 1.34278096 4 2 C4.639375 1.401875 5.27875 0.80375 5.9375 0.1875 C11.60462236 -3.86044454 18.02165309 -5.87229336 25 -5 C30.79354931 -3.13563984 35.01203328 -0.69172555 39 4 C39.556875 4.598125 40.11375 5.19625 40.6875 5.8125 C44.49256685 12.15427809 44.60681418 18.96215391 43 26 C39.37142469 36.73312231 30.8266598 44.19727494 23 52 C22.04364157 52.96682587 21.08793718 53.93429904 20.1328125 54.90234375 C14.92611765 60.16380988 9.7360419 65.30687481 4 70 C1.18648214 68.71104283 -0.9325707 67.33731495 -3.171875 65.20703125 C-3.74969727 64.66296631 -4.32751953 64.11890137 -4.92285156 63.55834961 C-5.52581055 62.98221924 -6.12876953 62.40608887 -6.75 61.8125 C-8.00940009 60.62132012 -9.26980865 59.43120551 -10.53125 58.2421875 C-11.13324219 57.67467773 -11.73523438 57.10716797 -12.35546875 56.52246094 C-14.26383636 54.7557477 -16.24301939 53.09079141 -18.25 51.4375 C-28.37119924 42.64402797 -37.2144655 31.40833207 -38.25 17.6875 C-37.8046635 11.11878669 -35.6314018 5.76372756 -31 1 C-20.8492633 -6.89501743 -10.64799795 -6.16095951 0 0 Z " fill="#E75F60" transform="translate(270,86)"/>
<path d="M0 0 C3.75317157 3.87045818 3.116435 7.57612184 3.0625 12.6875 C3.05798828 13.48929688 3.05347656 14.29109375 3.04882812 15.1171875 C3.03703168 17.09899006 3.01909605 19.08075433 3 21.0625 C4.32 21.3925 5.64 21.7225 7 22.0625 C7.33 23.3825 7.66 24.7025 8 26.0625 C3.21269388 27.20233479 0.59120557 26.59290186 -4 25.0625 C-4.99 25.7225 -5.98 26.3825 -7 27.0625 C-9.55859375 27.328125 -9.55859375 27.328125 -12.4375 27.3125 C-13.38496094 27.31765625 -14.33242187 27.3228125 -15.30859375 27.328125 C-18.05796307 27.05677941 -19.68013582 26.52877984 -22 25.0625 C-24.3020949 21.83956714 -24.47510654 18.94253676 -24 15.0625 C-21.59747593 11.1472756 -19.46471641 9.1786791 -15 8.0625 C-10.91922423 7.75298008 -6.91936404 7.75604532 -3 9.0625 C-3.33 7.4125 -3.66 5.7625 -4 4.0625 C-9.63281599 3.8228057 -14.54538831 4.67720179 -20 6.0625 C-20.66 4.7425 -21.32 3.4225 -22 2.0625 C-16.84338123 -4.61077135 -6.50316808 -4.19996272 0 0 Z M-16.8359375 15.44140625 C-18.26185067 17.03236831 -18.26185067 17.03236831 -17.6875 19.25 C-17.460625 19.848125 -17.23375 20.44625 -17 21.0625 C-11.7585303 22.46874797 -8.7053118 21.73806946 -4 19.0625 C-2.95710245 16.99359581 -2.95710245 16.99359581 -3 15.0625 C-5.45382134 13.83558933 -7.19984103 13.86074069 -9.9375 13.8125 C-10.81277344 13.78671875 -11.68804687 13.7609375 -12.58984375 13.734375 C-15.05503144 13.87066356 -15.05503144 13.87066356 -16.8359375 15.44140625 Z " fill="#E0292B" transform="translate(134,211.9375)"/>
<path d="M0 0 C3.00624144 2.59629943 4.73727116 4.21181348 6 8 C6.07029121 10.57265818 6.09370832 13.11641431 6.0625 15.6875 C6.05798828 16.38939453 6.05347656 17.09128906 6.04882812 17.81445312 C6.03706927 19.54300538 6.01913454 21.27151365 6 23 C7.32 23.33 8.64 23.66 10 24 C10 25.32 10 26.64 10 28 C7.39080172 29.30459914 5.41057385 29.1326594 2.5 29.125 C1.5203125 29.12757813 0.540625 29.13015625 -0.46875 29.1328125 C-3 29 -3 29 -5 28 C-4.67 26.35 -4.34 24.7 -4 23 C-2.68 23 -1.36 23 0 23 C-0.33 17.39 -0.66 11.78 -1 6 C-7.45454037 6.33864433 -7.45454037 6.33864433 -9.875 8.4375 C-12.07109069 11.48762596 -12.26053755 13.91517561 -12.5625 17.625 C-12.64628906 18.62789062 -12.73007812 19.63078125 -12.81640625 20.6640625 C-12.87699219 21.43492187 -12.93757813 22.20578125 -13 23 C-11.68 23.33 -10.36 23.66 -9 24 C-9 25.32 -9 26.64 -9 28 C-11.82716095 28.94238698 -13.63176123 29.13465647 -16.5625 29.125 C-17.74005859 29.12886719 -17.74005859 29.12886719 -18.94140625 29.1328125 C-21 29 -21 29 -23 28 C-22.67 26.35 -22.34 24.7 -22 23 C-21.01 23 -20.02 23 -19 23 C-19 17.39 -19 11.78 -19 6 C-20.32 5.67 -21.64 5.34 -23 5 C-23 1 -23 1 -22 0 C-16.26388889 -0.27314815 -16.26388889 -0.27314815 -14 0 C-13.34 0.66 -12.68 1.32 -12 2 C-10.948125 1.484375 -9.89625 0.96875 -8.8125 0.4375 C-5.45463318 -0.9745607 -3.48268039 -1.46639174 0 0 Z " fill="#EA2222" transform="translate(317,210)"/>
<path d="M0 0 C3.00624144 2.59629943 4.73727116 4.21181348 6 8 C6.07029121 10.57265818 6.09370832 13.11641431 6.0625 15.6875 C6.05798828 16.38939453 6.05347656 17.09128906 6.04882812 17.81445312 C6.03706927 19.54300538 6.01913454 21.27151365 6 23 C7.32 23.33 8.64 23.66 10 24 C10 25.32 10 26.64 10 28 C5.57117061 29.10720735 1.53942698 29.22325051 -3 29 C-3.66 28.34 -4.32 27.68 -5 27 C-5 26.01 -5 25.02 -5 24 C-3.35 23.67 -1.7 23.34 0 23 C-0.33 17.39 -0.66 11.78 -1 6 C-7.45454037 6.33864433 -7.45454037 6.33864433 -9.875 8.4375 C-12.07109069 11.48762596 -12.26053755 13.91517561 -12.5625 17.625 C-12.64628906 18.62789062 -12.73007812 19.63078125 -12.81640625 20.6640625 C-12.87699219 21.43492187 -12.93757813 22.20578125 -13 23 C-11.68 23.33 -10.36 23.66 -9 24 C-9 25.32 -9 26.64 -9 28 C-11.83556587 29.41778293 -13.9908706 28.86257622 -17.125 28.5625 C-18.22070312 28.46066406 -19.31640625 28.35882813 -20.4453125 28.25390625 C-21.70988281 28.12822266 -21.70988281 28.12822266 -23 28 C-22.67 26.35 -22.34 24.7 -22 23 C-21.01 23 -20.02 23 -19 23 C-19 17.39 -19 11.78 -19 6 C-20.32 5.67 -21.64 5.34 -23 5 C-23 1 -23 1 -22 0 C-16.26388889 -0.27314815 -16.26388889 -0.27314815 -14 0 C-13.34 0.66 -12.68 1.32 -12 2 C-10.948125 1.484375 -9.89625 0.96875 -8.8125 0.4375 C-5.45463318 -0.9745607 -3.48268039 -1.46639174 0 0 Z " fill="#E92325" transform="translate(354,210)"/>
<path d="M0 0 C3.32956606 3.01983899 4.91645141 6.00180476 5.6875 10.4375 C5.3575 11.7575 5.0275 13.0775 4.6875 14.4375 C-2.5725 14.4375 -9.8325 14.4375 -17.3125 14.4375 C-15.14661375 20.47506812 -15.14661375 20.47506812 -11.625 21.4375 C-8.20339323 21.4375 -5.49396382 20.89613662 -2.2421875 19.91015625 C-0.3125 19.4375 -0.3125 19.4375 3.6875 19.4375 C4.0175 21.0875 4.3475 22.7375 4.6875 24.4375 C-1.90771917 28.22774029 -7.86588163 28.24039369 -15.3125 27.4375 C-18.60183666 26.28386574 -20.54410862 24.65725415 -22.4296875 21.6640625 C-24.22477445 17.13663081 -23.83642047 12.21028766 -23.3125 7.4375 C-21.04939074 2.83045615 -18.30941165 -0.27810929 -13.5625 -2.3125 C-8.50899868 -2.87400015 -4.52872948 -2.13619315 0 0 Z M-16.3125 6.4375 C-16.3125 7.4275 -16.3125 8.4175 -16.3125 9.4375 C-11.3625 9.4375 -6.4125 9.4375 -1.3125 9.4375 C-1.6425 8.1175 -1.9725 6.7975 -2.3125 5.4375 C-7.57108693 2.59502058 -11.54438085 2.86141064 -16.3125 6.4375 Z " fill="#EA2424" transform="translate(208.3125,211.5625)"/>
<path d="M0 0 C3.79613443 3.03690754 4.98885888 5.7567944 5.9375 10.5 C6.06125 12.10875 6.06125 12.10875 6.1875 13.75 C5.1875 14.75 5.1875 14.75 3.05444336 14.86352539 C2.13800049 14.85828857 1.22155762 14.85305176 0.27734375 14.84765625 C-0.71201172 14.84443359 -1.70136719 14.84121094 -2.72070312 14.83789062 C-3.76162109 14.82951172 -4.80253906 14.82113281 -5.875 14.8125 C-6.91978516 14.80798828 -7.96457031 14.80347656 -9.04101562 14.79882812 C-11.6315666 14.78699913 -14.22200559 14.77051689 -16.8125 14.75 C-15.5690644 18.58060875 -15.5690644 18.58060875 -12.61328125 21.1171875 C-9.1164457 21.9072675 -6.51881894 21.51478526 -3 20.875 C-1.83855469 20.67132813 -0.67710937 20.46765625 0.51953125 20.2578125 C1.39996094 20.09023437 2.28039062 19.92265625 3.1875 19.75 C3.8475 21.07 4.5075 22.39 5.1875 23.75 C1.07529816 27.62030761 -2.17490788 28.10697441 -7.8125 28.25 C-11.95479983 28.11032287 -14.63770976 27.82110112 -18.5 26.25 C-22.07583324 22.38423434 -23.73850833 18.70966668 -23.87109375 13.40625 C-23.51753883 8.89278294 -22.75450834 5.3224387 -19.8125 1.75 C-13.43984423 -2.82524004 -7.17006165 -3.18669407 0 0 Z M-15.8125 6.75 C-15.8125 7.74 -15.8125 8.73 -15.8125 9.75 C-11.1925 9.75 -6.5725 9.75 -1.8125 9.75 C-1.8125 8.76 -1.8125 7.77 -1.8125 6.75 C-6.92786079 2.91347941 -10.69713921 2.91347941 -15.8125 6.75 Z " fill="#E52524" transform="translate(392.8125,211.25)"/>
<path d="M0 0 C0.57105469 0.32226562 1.14210938 0.64453125 1.73046875 0.9765625 C1.73046875 0.3165625 1.73046875 -0.3434375 1.73046875 -1.0234375 C4.20546875 -0.5284375 4.20546875 -0.5284375 6.73046875 -0.0234375 C6.73046875 4.2665625 6.73046875 8.5565625 6.73046875 12.9765625 C4.73046875 13.9765625 4.73046875 13.9765625 2.66796875 13.4140625 C0.73046875 11.9765625 0.73046875 11.9765625 -0.01953125 8.8515625 C-0.14328125 7.4284375 -0.14328125 7.4284375 -0.26953125 5.9765625 C-6.92025503 5.32947707 -6.92025503 5.32947707 -12.83203125 7.7890625 C-15.94561279 12.52712136 -15.83875931 17.4966804 -15.26953125 22.9765625 C-14.16444581 26.71967977 -14.16444581 26.71967977 -11.26953125 28.9765625 C-6.01992761 29.9357924 -1.96685942 29.40552279 2.73046875 26.9765625 C4.98046875 27.3515625 4.98046875 27.3515625 6.73046875 27.9765625 C6.73046875 29.2965625 6.73046875 30.6165625 6.73046875 31.9765625 C1.96145185 36.41668168 -3.10521041 36.32497107 -9.3203125 36.25 C-13.36279174 35.8752006 -15.36861724 34.80495366 -18.26953125 31.9765625 C-22.80894863 26.48147831 -22.87942869 21.3749815 -22.6484375 14.36328125 C-22.05342611 9.04498356 -20.76889198 5.24282223 -16.76171875 1.609375 C-11.78507817 -1.746964 -5.51383279 -2.48644439 0 0 Z " fill="#E52527" transform="translate(95.26953125,203.0234375)"/>
<path d="M0 0 C1.66965451 -0.31802943 3.33678518 -0.64984951 5 -1 C6 0 6 0 6.09765625 2.94140625 C6.08605469 4.13636719 6.07445312 5.33132812 6.0625 6.5625 C6.05347656 7.76003906 6.04445312 8.95757812 6.03515625 10.19140625 C6.02355469 11.11824219 6.01195312 12.04507813 6 13 C4.35 13 2.7 13 1 13 C0.34 10.69 -0.32 8.38 -1 6 C-7.65072378 5.35291457 -7.65072378 5.35291457 -13.5625 7.8125 C-16.67608154 12.55055886 -16.56922806 17.5201179 -16 23 C-14.89491456 26.74311727 -14.89491456 26.74311727 -12 29 C-6.75039636 29.9592299 -2.69732817 29.42896029 2 27 C4.25 27.375 4.25 27.375 6 28 C6 29.32 6 30.64 6 32 C1.2722404 36.40170721 -3.80617499 36.40703679 -9.98046875 36.33984375 C-14.44328927 35.83755994 -17.06277644 34.35805383 -20 31 C-23.95426105 24.87727322 -23.77228663 18.10854743 -23 11 C-21.77799593 6.3883894 -19.79620686 3.17742159 -15.8125 0.5 C-10.74824575 -1.98290651 -5.25414036 -1.75138012 0 0 Z " fill="#E32828" transform="translate(244,203)"/>
<path d="M0 0 C3.79972989 3.64393231 4.95921065 6.42631713 5.4375 11.6875 C4.97537016 16.95578014 3.48984 20.01831512 -0.4375 23.5625 C-5.15251551 26.82674151 -9.23374339 26.88258331 -14.875 26.25 C-20.00808791 23.63679161 -23.0547908 20.71062759 -24.875 15.25 C-25.27180449 9.99234055 -24.76998146 6.68897158 -21.875 2.25 C-15.476828 -4.3990807 -7.49904719 -6.09004041 0 0 Z M-15.875 4.25 C-17.89751715 6.54218611 -18.82224673 8.16961306 -18.97265625 11.25 C-18.73489636 14.40466777 -18.27610836 16.7365813 -16.3125 19.25 C-11.96112282 21.03518038 -7.78887718 21.03518038 -3.4375 19.25 C-1.05144989 16.19585586 -0.70597089 13.01273489 -0.875 9.25 C-1.68707646 6.28506935 -1.68707646 6.28506935 -3.875 4.25 C-8.456824 2.29848237 -11.55770631 1.49172903 -15.875 4.25 Z " fill="#E0292A" transform="translate(282.875,212.75)"/>
<path d="M0 0 C3.05270463 0.15811388 3.05270463 0.15811388 6 -1 C6.66 -0.67 7.32 -0.34 8 0 C8.44921875 2.6875 8.44921875 2.6875 8.6875 6 C8.77386719 7.093125 8.86023438 8.18625 8.94921875 9.3125 C8.96597656 10.199375 8.98273438 11.08625 9 12 C8 13 8 13 5.4375 13.0625 C4.633125 13.041875 3.82875 13.02125 3 13 C2.62875 12.030625 2.2575 11.06125 1.875 10.0625 C0.30036329 6.76394124 0.30036329 6.76394124 -2.875 6 C-6.20084334 6 -8.10358697 6.39088165 -11 8 C-13.47342266 11.71013399 -13.38503486 13.61060262 -13 18 C-11.87990597 20.27298446 -11.87990597 20.27298446 -10 22 C-7.63239638 22.55780476 -7.63239638 22.55780476 -5.0625 22.375 C-4.20785156 22.36210937 -3.35320312 22.34921875 -2.47265625 22.3359375 C0.09204703 21.9874944 1.73489729 21.20060165 4 20 C6.1875 20.1875 6.1875 20.1875 8 21 C8.33 21.99 8.66 22.98 9 24 C3.26932151 28.80137928 -0.70541667 29.35714221 -8.046875 29.27734375 C-12.05533153 28.90088818 -14.12470934 27.80156526 -17 25 C-20.34317184 20.20812036 -20.73156875 15.65949713 -20 10 C-18.23196334 4.79411428 -15.77577899 2.63155169 -11 0 C-7.27125057 -1.56366911 -3.90802131 -0.6394944 0 0 Z " fill="#EB2525" transform="translate(426,210)"/>
<path d="M0 0 C1.67542976 0.28604898 3.34385343 0.61781233 5 1 C5 3.97 5 6.94 5 10 C5.84304688 9.98839844 6.68609375 9.97679687 7.5546875 9.96484375 C8.65039062 9.95582031 9.74609375 9.94679687 10.875 9.9375 C12.51082031 9.92009766 12.51082031 9.92009766 14.1796875 9.90234375 C17 10 17 10 19 11 C18.67 12.65 18.34 14.3 18 16 C13.71 16 9.42 16 5 16 C5.33 20.95 5.66 25.9 6 31 C10.96916636 30.48594831 15.29026351 29.76615118 20 28 C20.66 29.65 21.32 31.3 22 33 C16.41280144 36.88674683 11.80818647 38.16349718 5 37 C1.44319828 34.89495409 0.30531064 33.91593192 -1 30 C-1.06970052 27.60509014 -1.08448003 25.20832309 -1.0625 22.8125 C-1.05347656 21.54019531 -1.04445313 20.26789063 -1.03515625 18.95703125 C-1.02355469 17.98121094 -1.01195312 17.00539062 -1 16 C-2.98 16 -4.96 16 -7 16 C-7.38218767 14.34385343 -7.71395102 12.67542976 -8 11 C-7 10 -7 10 -3.9375 9.9375 C-2.4834375 9.9684375 -2.4834375 9.9684375 -1 10 C-1.01160156 9.36191406 -1.02320313 8.72382813 -1.03515625 8.06640625 C-1.04417969 7.24011719 -1.05320312 6.41382813 -1.0625 5.5625 C-1.07410156 4.73878906 -1.08570313 3.91507813 -1.09765625 3.06640625 C-1 1 -1 1 0 0 Z " fill="#FB1C1C" transform="translate(451,202)"/>
<path d="M0 0 C2 2 2 2 2 6 C-1 7 -1 7 -3.9375 6.9375 C-7.1125081 7.00229608 -8.49188188 7.09728971 -11 9 C-13.9581605 13.60158299 -14.54059385 17.67088867 -15 23 C-11.7 23 -8.4 23 -5 23 C-4.34 24.32 -3.68 25.64 -3 27 C-5.99126319 28.72206188 -8.10685713 29.24179923 -11.546875 29.1953125 C-12.81337891 29.18564453 -12.81337891 29.18564453 -14.10546875 29.17578125 C-14.97816406 29.15902344 -15.85085937 29.14226562 -16.75 29.125 C-17.63816406 29.11597656 -18.52632812 29.10695312 -19.44140625 29.09765625 C-21.62788058 29.07414577 -23.81380094 29.04128499 -26 29 C-26.38218767 27.34385343 -26.71395102 25.67542976 -27 24 C-26.67 23.67 -26.34 23.34 -26 23 C-24.35 23 -22.7 23 -21 23 C-21 17.39 -21 11.78 -21 6 C-22.65 5.67 -24.3 5.34 -26 5 C-26 1 -26 1 -25 0 C-19.74229075 -0.42400881 -19.74229075 -0.42400881 -17 0 C-15 2 -15 2 -14 4 C-13.236875 3.360625 -12.47375 2.72125 -11.6875 2.0625 C-7.48227399 -1.16476647 -5.0429736 -1.18027042 0 0 Z " fill="#E62123" transform="translate(175,210)"/>
<path d="M0 0 C3.75317157 3.87045818 3.116435 7.57612184 3.0625 12.6875 C3.05798828 13.48929688 3.05347656 14.29109375 3.04882812 15.1171875 C3.03703168 17.09899006 3.01909605 19.08075433 3 21.0625 C2.34 21.0625 1.68 21.0625 1 21.0625 C0.95101562 20.20785156 0.90203125 19.35320312 0.8515625 18.47265625 C0.77679688 17.36792969 0.70203125 16.26320312 0.625 15.125 C0.55539063 14.02285156 0.48578125 12.92070312 0.4140625 11.78515625 C0.27742188 10.88667969 0.14078125 9.98820313 0 9.0625 C-0.66 8.7325 -1.32 8.4025 -2 8.0625 C-2 8.7225 -2 9.3825 -2 10.0625 C-3.98 11.0525 -3.98 11.0525 -6 12.0625 C-4.68 12.7225 -3.36 13.3825 -2 14.0625 C-2.33 15.3825 -2.66 16.7025 -3 18.0625 C-3 17.0725 -3 16.0825 -3 15.0625 C-6.63 14.7325 -10.26 14.4025 -14 14.0625 C-14 13.7325 -14 13.4025 -14 13.0625 C-12.35 12.7325 -10.7 12.4025 -9 12.0625 C-9 11.4025 -9 10.7425 -9 10.0625 C-11.97 10.0625 -14.94 10.0625 -18 10.0625 C-13.72141938 7.21011292 -9.39339641 7.58382072 -4.5 8.5625 C-4.005 8.7275 -3.51 8.8925 -3 9.0625 C-3.33 7.4125 -3.66 5.7625 -4 4.0625 C-9.63281599 3.8228057 -14.54538831 4.67720179 -20 6.0625 C-20.66 4.7425 -21.32 3.4225 -22 2.0625 C-16.84338123 -4.61077135 -6.50316808 -4.19996272 0 0 Z " fill="#E82528" transform="translate(134,211.9375)"/>
<path d="M0 0 C0.33 0 0.66 0 1 0 C1.06058594 1.05960938 1.12117188 2.11921875 1.18359375 3.2109375 C1.26800127 4.59897221 1.35264917 5.98699232 1.4375 7.375 C1.47681641 8.07367188 1.51613281 8.77234375 1.55664062 9.4921875 C1.74280134 13.37360492 1.74280134 13.37360492 3 17 C3.33 13.7 3.66 10.4 4 7 C4.33 7 4.66 7 5 7 C5.16435547 8.01320312 5.16435547 8.01320312 5.33203125 9.046875 C5.49058594 9.93890625 5.64914063 10.8309375 5.8125 11.75 C5.96332031 12.63171875 6.11414063 13.5134375 6.26953125 14.421875 C7.08456555 17.29846664 7.85965474 18.90786072 10 21 C12.36760362 21.55780476 12.36760362 21.55780476 14.9375 21.375 C15.79214844 21.36210937 16.64679688 21.34921875 17.52734375 21.3359375 C20.09086788 20.9876546 21.72999241 20.18604251 24 19 C26.25 19.375 26.25 19.375 28 20 C28 21.32 28 22.64 28 24 C23.2309831 28.44011918 18.16432084 28.34840857 11.94921875 28.2734375 C7.90673951 27.8986381 5.90091401 26.82839116 3 24 C-2.20118194 17.70383239 -1.60447836 10.88794709 -1 3 C-0.67 2.01 -0.34 1.02 0 0 Z " fill="#CF2629" transform="translate(74,211)"/>
<path d="M0 0 C3.32956606 3.01983899 4.91645141 6.00180476 5.6875 10.4375 C5.3575 11.7575 5.0275 13.0775 4.6875 14.4375 C-2.5725 14.4375 -9.8325 14.4375 -17.3125 14.4375 C-17.3125 15.4275 -17.3125 16.4175 -17.3125 17.4375 C-17.9725 17.4375 -18.6325 17.4375 -19.3125 17.4375 C-19.3125 16.1175 -19.3125 14.7975 -19.3125 13.4375 C-12.0525 13.1075 -4.7925 12.7775 2.6875 12.4375 C2.3575 10.4575 2.0275 8.4775 1.6875 6.4375 C1.0275 7.7575 0.3675 9.0775 -0.3125 10.4375 C-2.2925 10.4375 -4.2725 10.4375 -6.3125 10.4375 C-6.3125 10.1075 -6.3125 9.7775 -6.3125 9.4375 C-4.6625 9.4375 -3.0125 9.4375 -1.3125 9.4375 C-1.6425 8.1175 -1.9725 6.7975 -2.3125 5.4375 C-3.72683206 5.2138663 -5.14417618 5.00923524 -6.5625 4.8125 C-7.74585938 4.63847656 -7.74585938 4.63847656 -8.953125 4.4609375 C-11.68359687 4.43381361 -13.0186813 4.99651133 -15.3125 6.4375 C-15.9725 7.0975 -16.6325 7.7575 -17.3125 8.4375 C-17.3125 6.4575 -17.3125 4.4775 -17.3125 2.4375 C-17.9725 2.1075 -18.6325 1.7775 -19.3125 1.4375 C-13.16657555 -3.61093794 -7.06432894 -3.33223063 0 0 Z " fill="#EC2424" transform="translate(208.3125,211.5625)"/>
<path d="M0 0 C2.81656132 2.81656132 2.98950864 4.61601605 3.09765625 8.57421875 C3.09103244 9.94534658 3.07914198 11.31645717 3.0625 12.6875 C3.05798828 13.38939453 3.05347656 14.09128906 3.04882812 14.81445312 C3.03706927 16.54300538 3.01913454 18.27151365 3 20 C4.32 20.33 5.64 20.66 7 21 C7 22.32 7 23.64 7 25 C4.39080172 26.30459914 2.41057385 26.1326594 -0.5 26.125 C-1.4796875 26.12757813 -2.459375 26.13015625 -3.46875 26.1328125 C-6 26 -6 26 -8 25 C-7.67 23.35 -7.34 21.7 -7 20 C-5.68 20 -4.36 20 -3 20 C-3 15.38 -3 10.76 -3 6 C-2.67 6 -2.34 6 -2 6 C-1.67 9.63 -1.34 13.26 -1 17 C-0.34 17 0.32 17 1 17 C0.67 11.39 0.34 5.78 0 0 Z " fill="#DD2E2E" transform="translate(320,213)"/>
<path d="M0 0 C0.33 0 0.66 0 1 0 C1.38063221 2.3260857 1.71269945 4.66055264 2 7 C1 8 1 8 -1.13305664 8.11352539 C-2.04949951 8.10828857 -2.96594238 8.10305176 -3.91015625 8.09765625 C-4.89951172 8.09443359 -5.88886719 8.09121094 -6.90820312 8.08789062 C-7.94912109 8.07951172 -8.99003906 8.07113281 -10.0625 8.0625 C-11.10728516 8.05798828 -12.15207031 8.05347656 -13.22851562 8.04882812 C-15.8190666 8.03699913 -18.40950559 8.02051689 -21 8 C-19.7565644 11.83060875 -19.7565644 11.83060875 -16.80078125 14.3671875 C-13.3039457 15.1572675 -10.70631894 14.76478526 -7.1875 14.125 C-6.02605469 13.92132813 -4.86460937 13.71765625 -3.66796875 13.5078125 C-2.34732422 13.25644531 -2.34732422 13.25644531 -1 13 C-0.34 14.32 0.32 15.64 1 17 C-0.98 17.99 -0.98 17.99 -3 19 C-3 18.34 -3 17.68 -3 17 C-2.34 17 -1.68 17 -1 17 C-1 16.34 -1 15.68 -1 15 C-1.73605469 15.22816406 -2.47210938 15.45632812 -3.23046875 15.69140625 C-4.69419922 16.12259766 -4.69419922 16.12259766 -6.1875 16.5625 C-7.63189453 16.99755859 -7.63189453 16.99755859 -9.10546875 17.44140625 C-13.7971932 18.34682676 -16.2469211 17.47791546 -20.25 14.9375 C-22.80483152 12.71021098 -23.45966271 11.03393185 -23.875 7.6875 C-23.91625 6.470625 -23.9575 5.25375 -24 4 C-20.24600202 2.7960663 -16.66782588 2.90122383 -12.75 2.9375 C-10.85507812 2.95103516 -10.85507812 2.95103516 -8.921875 2.96484375 C-7.95765625 2.97644531 -6.9934375 2.98804688 -6 3 C-6.33 3.66 -6.66 4.32 -7 5 C-7.99 5 -8.98 5 -10 5 C-10.33 5.66 -10.66 6.32 -11 7 C-7.37 7 -3.74 7 0 7 C0 4.69 0 2.38 0 0 Z " fill="#E52A2D" transform="translate(397,218)"/>
<path d="M0 0 C0.33 0 0.66 0 1 0 C1.33 4.95 1.66 9.9 2 15 C6.96916636 14.48594831 11.29026351 13.76615118 16 12 C16.66 13.65 17.32 15.3 18 17 C12.41180267 20.88744162 7.808897 22.16165304 1 21 C-2.125 19.1875 -2.125 19.1875 -4 17 C-4 16.01 -4 15.02 -4 14 C-3.01 14.33 -2.02 14.66 -1 15 C-0.67 10.05 -0.34 5.1 0 0 Z " fill="#D02B2D" transform="translate(455,218)"/>
<path d="M0 0 C1.67542976 0.28604898 3.34385343 0.61781233 5 1 C5.33 4.3 5.66 7.6 6 11 C4.02 11 2.04 11 0 11 C0.17402344 11.67417969 0.34804688 12.34835938 0.52734375 13.04296875 C1.09350437 16.58498188 0.86291122 19.74094434 0.5625 23.3125 C0.46066406 24.56675781 0.35882813 25.82101563 0.25390625 27.11328125 C0.17011719 28.06589844 0.08632813 29.01851562 0 30 C-0.33 30 -0.66 30 -1 30 C-1 25.38 -1 20.76 -1 16 C-2.98 16 -4.96 16 -7 16 C-7.38218767 14.34385343 -7.71395102 12.67542976 -8 11 C-7 10 -7 10 -3.9375 9.9375 C-2.4834375 9.9684375 -2.4834375 9.9684375 -1 10 C-1.01160156 9.36191406 -1.02320313 8.72382813 -1.03515625 8.06640625 C-1.04417969 7.24011719 -1.05320312 6.41382813 -1.0625 5.5625 C-1.07410156 4.73878906 -1.08570313 3.91507813 -1.09765625 3.06640625 C-1 1 -1 1 0 0 Z " fill="#E12829" transform="translate(451,202)"/>
<path d="M0 0 C0.99 0.66 1.98 1.32 3 2 C5.37755949 2.3168217 5.37755949 2.3168217 7.9375 2.25 C8.79214844 2.25515625 9.64679688 2.2603125 10.52734375 2.265625 C13.1337584 1.98563101 14.71257841 1.22224887 17 0 C19.1875 0.1875 19.1875 0.1875 21 1 C21.33 1.99 21.66 2.98 22 4 C16.24750658 8.81965665 12.25970612 9.32751709 4.8984375 9.30078125 C1.24672846 8.92183031 -0.59362762 7.75013986 -3 5 C-1.68 5 -0.36 5 1 5 C1 5.66 1 6.32 1 7 C4.3 7 7.6 7 11 7 C11 6.34 11 5.68 11 5 C9.906875 5.020625 8.81375 5.04125 7.6875 5.0625 C4 5 4 5 1 4 C0.3125 1.9375 0.3125 1.9375 0 0 Z " fill="#E32729" transform="translate(413,230)"/>
<path d="M0 0 C0.99 0.33 1.98 0.66 3 1 C3 4.96 3 8.92 3 13 C4.65 13 6.3 13 8 13 C10 15 10 15 10 18 C7.1875 18.6875 7.1875 18.6875 4 19 C2.375 17.6875 2.375 17.6875 1 16 C-1.09989652 14.82425289 -1.09989652 14.82425289 -3 14 C-3 13.34 -3 12.68 -3 12 C-2.34 12 -1.68 12 -1 12 C-0.67 10.02 -0.34 8.04 0 6 C-1.65 5.67 -3.3 5.34 -5 5 C-3.625 3.5 -3.625 3.5 -2 2 C-1.34 2 -0.68 2 0 2 C0 1.34 0 0.68 0 0 Z " fill="#EE201F" transform="translate(132,220)"/>
<path d="M0 0 C3.3329312 0.28567982 4.97507008 0.9814475 7.6875 3 C10.58265316 6.75587437 11.59168561 10.29466269 12 15 C11 16 11 16 8.86694336 16.11352539 C7.95050049 16.10828857 7.03405762 16.10305176 6.08984375 16.09765625 C5.10048828 16.09443359 4.11113281 16.09121094 3.09179688 16.08789062 C2.05087891 16.07951172 1.00996094 16.07113281 -0.0625 16.0625 C-1.10728516 16.05798828 -2.15207031 16.05347656 -3.22851562 16.04882812 C-5.8190666 16.03699913 -8.40950559 16.02051689 -11 16 C-11 16.99 -11 17.98 -11 19 C-11.66 19 -12.32 19 -13 19 C-13 17.68 -13 16.36 -13 15 C-5.74 14.67 1.52 14.34 9 14 C8.67 12.02 8.34 10.04 8 8 C7.34 9.32 6.68 10.64 6 12 C4.02 12 2.04 12 0 12 C0 11.67 0 11.34 0 11 C1.65 11 3.3 11 5 11 C4.80528889 9.05000871 4.80528889 9.05000871 4 7 C2.0162233 5.71563266 2.0162233 5.71563266 0 5 C1.98 5 3.96 5 6 5 C6 4.34 6 3.68 6 3 C4.02 2.34 2.04 1.68 0 1 C0 0.67 0 0.34 0 0 Z " fill="#DB2E2F" transform="translate(202,210)"/>
<path d="M0 0 C0.33 1.65 0.66 3.3 1 5 C-3.60439253 7.67647971 -6.94195175 8.38590918 -12.25 8.3125 C-14.08304688 8.30669922 -14.08304688 8.30669922 -15.953125 8.30078125 C-19 8 -19 8 -21 6 C-19.63875 6.0309375 -19.63875 6.0309375 -18.25 6.0625 C-15.57327412 6.0110245 -13.53011948 5.7784983 -11 5 C-11 4.01 -11 3.02 -11 2 C-7.12315913 0.80712589 -4.08378077 0 0 0 Z " fill="#E72424" transform="translate(212,231)"/>
<path d="M0 0 C0.66 0 1.32 0 2 0 C2 5.94 2 11.88 2 18 C0.68 18 -0.64 18 -2 18 C-2 18.99 -2 19.98 -2 21 C1.3 21 4.6 21 8 21 C8 20.34 8 19.68 8 19 C7.01 19 6.02 19 5 19 C5 14.71 5 10.42 5 6 C5.33 6 5.66 6 6 6 C6 9.63 6 13.26 6 17 C7.32 17.33 8.64 17.66 10 18 C10 19.32 10 20.64 10 22 C7.16443413 23.41778293 5.0091294 22.86257622 1.875 22.5625 C0.77929688 22.46066406 -0.31640625 22.35882813 -1.4453125 22.25390625 C-2.70988281 22.12822266 -2.70988281 22.12822266 -4 22 C-3.67 20.35 -3.34 18.7 -3 17 C-2.01 17 -1.02 17 0 17 C0 11.39 0 5.78 0 0 Z " fill="#D32F31" transform="translate(335,216)"/>
<path d="M0 0 C0.8971875 0.309375 0.8971875 0.309375 1.8125 0.625 C1.8125 1.945 1.8125 3.265 1.8125 4.625 C-2.95754417 9.06607561 -8.01116712 8.94836848 -14.22265625 8.92578125 C-18.30668105 8.51145989 -20.16119811 7.31504613 -23.1875 4.625 C-22.5275 4.295 -21.8675 3.965 -21.1875 3.625 C-20.1975 3.955 -19.2075 4.285 -18.1875 4.625 C-18.1875 5.285 -18.1875 5.945 -18.1875 6.625 C-13.5675 6.295 -8.9475 5.965 -4.1875 5.625 C-4.5175 4.305 -4.8475 2.985 -5.1875 1.625 C-2.1875 -0.375 -2.1875 -0.375 0 0 Z " fill="#D12A2E" transform="translate(248.1875,230.375)"/>
<path d="M0 0 C0.33 0 0.66 0 1 0 C1.06058594 1.05960938 1.12117188 2.11921875 1.18359375 3.2109375 C1.26800127 4.59897221 1.35264917 5.98699232 1.4375 7.375 C1.47681641 8.07367188 1.51613281 8.77234375 1.55664062 9.4921875 C1.74280134 13.37360492 1.74280134 13.37360492 3 17 C3.33 13.7 3.66 10.4 4 7 C4.33 7 4.66 7 5 7 C5.36504603 8.58086048 5.71660506 10.16483907 6.0625 11.75 C6.25972656 12.63171875 6.45695312 13.5134375 6.66015625 14.421875 C6.99825872 16.98679028 6.81158635 18.57091639 6 21 C5.34 20.67 4.68 20.34 4 20 C4 20.99 4 21.98 4 23 C3.34 23 2.68 23 2 23 C-0.6773761 18.39914054 -1.363673 15.11534546 -1.25 9.8125 C-1.23453125 8.60207031 -1.2190625 7.39164063 -1.203125 6.14453125 C-1 3 -1 3 0 0 Z " fill="#D43234" transform="translate(74,211)"/>
<path d="M0 0 C0.66 0.33 1.32 0.66 2 1 C1.79375 2.2375 1.5875 3.475 1.375 4.75 C0.95318113 8.10672761 0.8681879 10.19498408 3 13 C5.52475462 14.26237731 7.31200466 14.09856404 10.125 14.0625 C11.03507812 14.05347656 11.94515625 14.04445312 12.8828125 14.03515625 C13.58148438 14.02355469 14.28015625 14.01195312 15 14 C14.67 14.66 14.34 15.32 14 16 C10.04 16 6.08 16 2 16 C2 16.99 2 17.98 2 19 C-0.62187494 17.95125002 -1.79371361 17.35068687 -3.25 14.875 C-3.4975 14.25625 -3.745 13.6375 -4 13 C-3.34 12.67 -2.68 12.34 -2 12 C-1.56959776 9.71051742 -1.56959776 9.71051742 -1.4375 7.0625 C-1.09380235 2.18760469 -1.09380235 2.18760469 0 0 Z " fill="#DC2A2D" transform="translate(264,218)"/>
<path d="M0 0 C0.66 0.33 1.32 0.66 2 1 C1.67 6.94 1.34 12.88 1 19 C0.34 19.33 -0.32 19.66 -1 20 C-2.19028338 16.42914986 -2.18398398 13.1539317 -2.1875 9.4375 C-2.19974609 8.75236328 -2.21199219 8.06722656 -2.22460938 7.36132812 C-2.22987533 5.57265888 -2.12200021 3.78451152 -2 2 C-1.34 1.34 -0.68 0.68 0 0 Z " fill="#F72020" transform="translate(77,209)"/>
<path d="M0 0 C0.5775 0.226875 1.155 0.45375 1.75 0.6875 C1.42 1.3475 1.09 2.0075 0.75 2.6875 C3.39 3.0175 6.03 3.3475 8.75 3.6875 C8.75 4.0175 8.75 4.3475 8.75 4.6875 C8.13511719 4.76226562 7.52023438 4.83703125 6.88671875 4.9140625 C4.37524452 5.32262769 2.12891772 5.77642513 -0.25 6.6875 C-2.39665717 9.63984447 -2.39665717 9.63984447 -3.25 12.6875 C-3.58 12.6875 -3.91 12.6875 -4.25 12.6875 C-4.58 10.7075 -4.91 8.7275 -5.25 6.6875 C-6.24 7.0175 -7.23 7.3475 -8.25 7.6875 C-6.86345583 3.41232214 -5.12511737 -0.71182186 0 0 Z " fill="#E52123" transform="translate(83.25,203.3125)"/>
<path d="M0 0 C1.63001953 0.01353516 1.63001953 0.01353516 3.29296875 0.02734375 C4.12441406 0.03894531 4.95585937 0.05054688 5.8125 0.0625 C5.8125 1.0525 5.8125 2.0425 5.8125 3.0625 C6.4725 3.3925 7.1325 3.7225 7.8125 4.0625 C6.8125 5.0625 6.8125 5.0625 3.65234375 5.16015625 C1.72068359 5.14275391 1.72068359 5.14275391 -0.25 5.125 C-1.54035156 5.11597656 -2.83070313 5.10695312 -4.16015625 5.09765625 C-5.15917969 5.08605469 -6.15820312 5.07445312 -7.1875 5.0625 C-7.8475 3.7425 -8.5075 2.4225 -9.1875 1.0625 C-5.90230525 -0.03256492 -3.45086585 -0.03710608 0 0 Z " fill="#ED2220" transform="translate(237.1875,231.9375)"/>
<path d="M0 0 C1.32 0 2.64 0 4 0 C4 0.66 4 1.32 4 2 C3.01 2 2.02 2 1 2 C0.67 2.99 0.34 3.98 0 5 C-3.03032442 6.51516221 -5.65114962 6.17028053 -9 6 C-11.9375 5 -11.9375 5 -14 4 C-13.67 3.01 -13.34 2.02 -13 1 C-11.71802734 1.01740234 -11.71802734 1.01740234 -10.41015625 1.03515625 C-8.75306641 1.04869141 -8.75306641 1.04869141 -7.0625 1.0625 C-5.40927734 1.07990234 -5.40927734 1.07990234 -3.72265625 1.09765625 C-1.08552366 1.31262571 -1.08552366 1.31262571 0 0 Z " fill="#F7201D" transform="translate(279,232)"/>
<path d="M0 0 C0 0.66 0 1.32 0 2 C0.66 2 1.32 2 2 2 C2 2.66 2 3.32 2 4 C1.21753906 4.04898438 0.43507812 4.09796875 -0.37109375 4.1484375 C-1.38300781 4.22320312 -2.39492187 4.29796875 -3.4375 4.375 C-4.44683594 4.44460937 -5.45617187 4.51421875 -6.49609375 4.5859375 C-7.73552734 4.79089844 -7.73552734 4.79089844 -9 5 C-9.33 5.66 -9.66 6.32 -10 7 C-10.99 7 -11.98 7 -13 7 C-13.33 5.35 -13.66 3.7 -14 2 C-9.126739 0.4087311 -5.19209404 -0.21192221 0 0 Z " fill="#FA1C1C" transform="translate(240,203)"/>
<path d="M0 0 C1.98 0.99 1.98 0.99 4 2 C4 2.99 4 3.98 4 5 C4.99 5.33 5.98 5.66 7 6 C7 8.31 7 10.62 7 13 C6.01 13 5.02 13 4 13 C4 13.66 4 14.32 4 15 C3.34 15 2.68 15 2 15 C1.93941406 14.33613281 1.87882812 13.67226562 1.81640625 12.98828125 C1.20136493 6.45091919 1.20136493 6.45091919 0 0 Z " fill="#F3201F" transform="translate(281,215)"/>
<path d="M0 0 C1.62490954 -0.02698189 3.24994633 -0.04638757 4.875 -0.0625 C5.77992188 -0.07410156 6.68484375 -0.08570313 7.6171875 -0.09765625 C10 0 10 0 12 1 C11.67 2.65 11.34 4.3 11 6 C6.71 6 2.42 6 -2 6 C-2 5.67 -2 5.34 -2 5 C-0.02 4.67 1.96 4.34 4 4 C4 3.01 4 2.02 4 1 C2.68 0.67 1.36 0.34 0 0 Z " fill="#E42524" transform="translate(458,212)"/>
<path d="M0 0 C0.28875 0.61875 0.5775 1.2375 0.875 1.875 C1.93720042 4.13325765 1.93720042 4.13325765 4 6 C10.02881167 7.50720292 15.02958564 6.45356165 21 5 C21.66 6.32 22.32 7.64 23 9 C21.02 9.99 21.02 9.99 19 11 C19 10.34 19 9.68 19 9 C19.66 9 20.32 9 21 9 C21 8.34 21 7.68 21 7 C19.89591797 7.34224609 19.89591797 7.34224609 18.76953125 7.69140625 C17.79371094 7.97886719 16.81789063 8.26632813 15.8125 8.5625 C14.36810547 8.99755859 14.36810547 8.99755859 12.89453125 9.44140625 C8.49763505 10.28993008 5.95761389 9.59584864 2.1875 7.25 C0 5 0 5 -0.3125 2.25 C-0.209375 1.5075 -0.10625 0.765 0 0 Z " fill="#D92C31" transform="translate(375,226)"/>
<path d="M0 0 C2.05395559 3.08093338 2.22502666 3.56743692 2.0625 7 C1.93936823 9.82667719 2.07450994 11.22352981 3 14 C3.99 14 4.98 14 6 14 C6 14.66 6 15.32 6 16 C2.7 16 -0.6 16 -4 16 C-4 15.01 -4 14.02 -4 13 C-2.68 13 -1.36 13 0 13 C0 8.71 0 4.42 0 0 Z " fill="#FB1C1D" transform="translate(337,221)"/>
<path d="M0 0 C0.66 0.33 1.32 0.66 2 1 C2 3.31 2 5.62 2 8 C-1.63 8 -5.26 8 -9 8 C-8.67 7.01 -8.34 6.02 -8 5 C-7.01 5 -6.02 5 -5 5 C-2.31232422 2.56249975 -2.31232422 2.56249975 0 0 Z " fill="#F71D1F" transform="translate(395,217)"/>
<path d="M0 0 C0.66 0 1.32 0 2 0 C2 1.65 2 3.3 2 5 C0.02 5.99 0.02 5.99 -2 7 C-0.68 7.66 0.64 8.32 2 9 C1.67 10.32 1.34 11.64 1 13 C1 12.01 1 11.02 1 10 C-2.63 9.67 -6.26 9.34 -10 9 C-10 8.67 -10 8.34 -10 8 C-8.35 7.67 -6.7 7.34 -5 7 C-5 6.34 -5 5.68 -5 5 C-7.97 5 -10.94 5 -14 5 C-9.72141938 2.14761292 -5.39339641 2.52132072 -0.5 3.5 C-0.005 3.665 0.49 3.83 1 4 C0.67 2.68 0.34 1.36 0 0 Z " fill="#D52729" transform="translate(130,217)"/>
<path d="M0 0 C0 0.99 0 1.98 0 3 C-0.99 3 -1.98 3 -3 3 C-3 3.66 -3 4.32 -3 5 C-4.79158489 5.02696365 -6.58328473 5.04637917 -8.375 5.0625 C-9.37273437 5.07410156 -10.37046875 5.08570313 -11.3984375 5.09765625 C-14 5 -14 5 -16 4 C-15.67 3.34 -15.34 2.68 -15 2 C-12.78515625 1.62109375 -12.78515625 1.62109375 -10.0625 1.4375 C-6.48780944 1.18547146 -3.48734653 0 0 0 Z " fill="#F71F1F" transform="translate(471,232)"/>
<path d="M0 0 C1.65 0 3.3 0 5 0 C3.02 0.99 3.02 0.99 1 2 C1 2.66 1 3.32 1 4 C3.31 4 5.62 4 8 4 C6 6 6 6 2.8125 6.265625 C0.9253125 6.25789062 0.9253125 6.25789062 -1 6.25 C-2.258125 6.25515625 -3.51625 6.2603125 -4.8125 6.265625 C-8 6 -8 6 -10 4 C-8.63875 4.0309375 -8.63875 4.0309375 -7.25 4.0625 C-4.57327412 4.0110245 -2.53011948 3.7784983 0 3 C0 2.01 0 1.02 0 0 Z " fill="#D3292B" transform="translate(201,233)"/>
<path d="M0 0 C2.97 0.495 2.97 0.495 6 1 C6 1.66 6 2.32 6 3 C1.92276266 4.95031692 -1.31692422 5.21581971 -5.8125 5.125 C-6.97394531 5.10695312 -8.13539062 5.08890625 -9.33203125 5.0703125 C-10.21246094 5.04710937 -11.09289062 5.02390625 -12 5 C-8.96474514 2.97649676 -7.80573798 2.67875982 -4.3125 2.375 C-3.50425781 2.30023438 -2.69601563 2.22546875 -1.86328125 2.1484375 C-1.24839844 2.09945312 -0.63351563 2.05046875 0 2 C0 1.34 0 0.68 0 0 Z " fill="#F91C1B" transform="translate(94,232)"/>
<path d="M0 0 C2.475 0.495 2.475 0.495 5 1 C6.13480527 4.60993172 6.10015767 7.9842327 6.0625 11.75 C6.05347656 12.92046875 6.04445313 14.0909375 6.03515625 15.296875 C6.02355469 16.18890625 6.01195312 17.0809375 6 18 C5.34 18 4.68 18 4 18 C3.67 13.05 3.34 8.1 3 3 C2.01 2.67 1.02 2.34 0 2 C0 1.34 0 0.68 0 0 Z " fill="#F91E1C" transform="translate(315,212)"/>
<path d="M0 0 C-0.69941596 3.14737182 -1.76078698 6.02588876 -3 9 C-3.66 9 -4.32 9 -5 9 C-5.33 10.65 -5.66 12.3 -6 14 C-6.33 14 -6.66 14 -7 14 C-7.22973141 9.29050618 -6.65049717 5.43028188 -5 1 C-2 0 -2 0 0 0 Z " fill="#F81D19" transform="translate(414,213)"/>
<path d="M0 0 C0.99 0.66 1.98 1.32 3 2 C5.50896686 2.45601261 5.50896686 2.45601261 8.1875 2.625 C9.08855469 2.69976562 9.98960938 2.77453125 10.91796875 2.8515625 C11.60503906 2.90054688 12.29210937 2.94953125 13 3 C13 3.33 13 3.66 13 4 C7.69276568 5.42705634 3.46108889 6.4002792 -2 5 C-2.33 3.68 -2.66 2.36 -3 1 C-2.01 0.67 -1.02 0.34 0 0 Z " fill="#E62424" transform="translate(81,230)"/>
<path d="M0 0 C2.475 0.99 2.475 0.99 5 2 C5 5.3 5 8.6 5 12 C4.01 12 3.02 12 2 12 C0.70756464 7.8803623 -0.26252625 4.33168317 0 0 Z " fill="#FB1C1A" transform="translate(244,203)"/>
<path d="M0 0 C2.64 0 5.28 0 8 0 C8 0.66 8 1.32 8 2 C9.65 2 11.3 2 13 2 C11 4 11 4 8.1796875 4.1953125 C7.08914062 4.17210937 5.99859375 4.14890625 4.875 4.125 C3.77929688 4.10695312 2.68359375 4.08890625 1.5546875 4.0703125 C0.71164063 4.04710937 -0.13140625 4.02390625 -1 4 C-0.67 2.68 -0.34 1.36 0 0 Z " fill="#FA1A1A" transform="translate(84,203)"/>
<path d="M0 0 C0.33 0.66 0.66 1.32 1 2 C0.34 2 -0.32 2 -1 2 C0.25541557 4.51083114 1.50063488 4.87125446 4 6 C3.401875 6.12375 2.80375 6.2475 2.1875 6.375 C-0.26231348 6.95475985 -0.26231348 6.95475985 -3 9 C-5.6875 9.125 -5.6875 9.125 -8 9 C-7.34 8.34 -6.68 7.68 -6 7 C-4.68 7 -3.36 7 -2 7 C-2 6.01 -2 5.02 -2 4 C-4.64 4.33 -7.28 4.66 -10 5 C-6.7321794 2.82145293 -3.61941735 1.50239966 0 0 Z " fill="#D02626" transform="translate(130,230)"/>
<path d="M0 0 C0.66 0.33 1.32 0.66 2 1 C2.6875 4 2.6875 4 3 7 C2 8 2 8 -1.4375 8.25 C-2.613125 8.1675 -3.78875 8.085 -5 8 C-5.66 7.01 -6.32 6.02 -7 5 C-5.02 5 -3.04 5 -1 5 C-0.67 3.35 -0.34 1.7 0 0 Z " fill="#F81E1F" transform="translate(209,217)"/>
<path d="M0 0 C-1.98 0.33 -3.96 0.66 -6 1 C-6 1.99 -6 2.98 -6 4 C-3.69 4 -1.38 4 1 4 C-1.96687001 5.64826111 -4.65626525 6.44271087 -8 7 C-8.66 5.68 -9.32 4.36 -10 3 C-6.81859267 -0.48439851 -4.56758339 -1.41752588 0 0 Z " fill="#D32526" transform="translate(122,211)"/>
<path d="M0 0 C0 1.32 0 2.64 0 4 C-0.99 4 -1.98 4 -3 4 C-3.12375 4.639375 -3.2475 5.27875 -3.375 5.9375 C-3.58125 6.618125 -3.7875 7.29875 -4 8 C-4.99 8.495 -4.99 8.495 -6 9 C-5.67 7.35 -5.34 5.7 -5 4 C-5.99 4 -6.98 4 -8 4 C-8 3.34 -8 2.68 -8 2 C-4.77208445 -0.1519437 -3.71599191 -0.20086443 0 0 Z " fill="#EC2123" transform="translate(381,211)"/>
<path d="M0 0 C-0.33 0.66 -0.66 1.32 -1 2 C0.32 2.33 1.64 2.66 3 3 C1.20866022 3.05391993 -0.58313899 3.09275571 -2.375 3.125 C-3.37273437 3.14820313 -4.37046875 3.17140625 -5.3984375 3.1953125 C-8 3 -8 3 -10 1 C-9.34 1 -8.68 1 -8 1 C-8 0.34 -8 -0.32 -8 -1 C-3.375 -2.25 -3.375 -2.25 0 0 Z " fill="#F71615" transform="translate(322,236)"/>
<path d="M0 0 C0 0.99 0 1.98 0 3 C-2.64 3.66 -5.28 4.32 -8 5 C-8 4.34 -8 3.68 -8 3 C-9.32 3 -10.64 3 -12 3 C-12 2.34 -12 1.68 -12 1 C-7.915021 0.45533613 -4.1274515 0 0 0 Z " fill="#F91E1B" transform="translate(128,234)"/>
<path d="M0 0 C1.98 0.99 1.98 0.99 4 2 C4 4.31 4 6.62 4 9 C2.68 9.33 1.36 9.66 0 10 C0 6.7 0 3.4 0 0 Z " fill="#F91D1B" transform="translate(355,216)"/>
<path d="M0 0 C3.50387753 1.25138483 5.26234055 3.10230866 7.625 5.9375 C7.625 6.9275 7.625 7.9175 7.625 8.9375 C5.6875 8.125 5.6875 8.125 3.625 6.9375 C3.295 5.9475 2.965 4.9575 2.625 3.9375 C0.75112784 3.13537372 0.75112784 3.13537372 -1.4375 2.75 C-2.17097656 2.59144531 -2.90445312 2.43289062 -3.66015625 2.26953125 C-4.22605469 2.15996094 -4.79195313 2.05039063 -5.375 1.9375 C-2.375 -0.0625 -2.375 -0.0625 0 0 Z " fill="#E22A2F" transform="translate(351.375,209.0625)"/>
<path d="M0 0 C0.33 0.66 0.66 1.32 1 2 C1.66 2 2.32 2 3 2 C3.33 2.99 3.66 3.98 4 5 C0.52674819 6.1577506 -2.36067448 6.06866652 -6 6 C-6 5.01 -6 4.02 -6 3 C-4.02 2.67 -2.04 2.34 0 2 C0 1.34 0 0.68 0 0 Z " fill="#F61D1D" transform="translate(122,209)"/>
<path d="M0 0 C0 0.66 0 1.32 0 2 C-2.64 2 -5.28 2 -8 2 C-8.66 3.32 -9.32 4.64 -10 6 C-11.98 6 -13.96 6 -16 6 C-11.75317247 0.90380696 -6.49499472 -0.39363604 0 0 Z " fill="#D16365" transform="translate(257,81)"/>
<path d="M0 0 C0.33 0 0.66 0 1 0 C1.33 4.62 1.66 9.24 2 14 C0.35 14.66 -1.3 15.32 -3 16 C-3 16.66 -3 17.32 -3 18 C-3.66 18 -4.32 18 -5 18 C-4.67 16.68 -4.34 15.36 -4 14 C-2.68 14 -1.36 14 0 14 C0 9.38 0 4.76 0 0 Z " fill="#D12F30" transform="translate(317,219)"/>
<path d="M0 0 C0.33 0 0.66 0 1 0 C1 5.28 1 10.56 1 16 C0.34 16 -0.32 16 -1 16 C-1.22197585 13.89722877 -1.42713637 11.79267698 -1.625 9.6875 C-1.74101562 8.51574219 -1.85703125 7.34398437 -1.9765625 6.13671875 C-2 3 -2 3 0 0 Z " fill="#D63133" transform="translate(136,217)"/>
<path d="M0 0 C0.598125 0.20625 1.19625 0.4125 1.8125 0.625 C1.8125 1.945 1.8125 3.265 1.8125 4.625 C-0.4975 4.625 -2.8075 4.625 -5.1875 4.625 C-5.1875 3.635 -5.1875 2.645 -5.1875 1.625 C-2.1875 -0.375 -2.1875 -0.375 0 0 Z " fill="#E12A2B" transform="translate(248.1875,230.375)"/>
<path d="M0 0 C0.99 0.66 1.98 1.32 3 2 C1.68 4.64 0.36 7.28 -1 10 C-1.66 9.67 -2.32 9.34 -3 9 C-3.26218749 5.85375007 -3.24754367 4.38162983 -1.5 1.6875 C-1.005 1.130625 -0.51 0.57375 0 0 Z " fill="#F71E1D" transform="translate(114,224)"/>
<path d="M0 0 C2.05078125 0.03255208 4.1015625 0.06510417 6.15234375 0.09765625 C6.81234375 1.41765625 7.47234375 2.73765625 8.15234375 4.09765625 C6.83234375 4.42765625 5.51234375 4.75765625 4.15234375 5.09765625 C4.48234375 3.77765625 4.81234375 2.45765625 5.15234375 1.09765625 C3.17234375 1.09765625 1.19234375 1.09765625 -0.84765625 1.09765625 C-0.84765625 2.41765625 -0.84765625 3.73765625 -0.84765625 5.09765625 C-0.18765625 5.42765625 0.47234375 5.75765625 1.15234375 6.09765625 C-0.16765625 5.76765625 -1.48765625 5.43765625 -2.84765625 5.09765625 C-2.84765625 0.15051037 -2.84765625 0.15051037 0 0 Z " fill="#D9282D" transform="translate(151.84765625,209.90234375)"/>
<path d="M0 0 C0.99 0.33 1.98 0.66 3 1 C-0.63 4.63 -4.26 8.26 -8 12 C-8.33 11.34 -8.66 10.68 -9 10 C-8.0625 7.875 -8.0625 7.875 -7 6 C-6.34 6 -5.68 6 -5 6 C-4.731875 5.38125 -4.46375 4.7625 -4.1875 4.125 C-3 2 -3 2 0 0 Z " fill="#CF5F61" transform="translate(290,137)"/>
<path d="M0 0 C0.66 0.66 1.32 1.32 2 2 C1.34 2 0.68 2 0 2 C0 2.99 0 3.98 0 5 C-1.98 5 -3.96 5 -6 5 C-6 3.68 -6 2.36 -6 1 C-3.125 0.375 -3.125 0.375 0 0 Z " fill="#F91A16" transform="translate(339,210)"/>
<path d="M0 0 C0.66 1.32 1.32 2.64 2 4 C-2.08443115 5.53166168 -5.79455657 4.63081652 -10 4 C-9.67 3.34 -9.34 2.68 -9 2 C-6.93359375 1.3671875 -6.93359375 1.3671875 -4.4375 0.875 C-3.61121094 0.70742187 -2.78492188 0.53984375 -1.93359375 0.3671875 C-0.97646484 0.18542969 -0.97646484 0.18542969 0 0 Z " fill="#FA1D18" transform="translate(278,210)"/>
<path d="M0 0 C0 3 0 3 -1 5 C0.32 5.33 1.64 5.66 3 6 C2.01 7.98 1.02 9.96 0 12 C-0.33 12 -0.66 12 -1 12 C-1.33 10.02 -1.66 8.04 -2 6 C-2.99 6.33 -3.98 6.66 -5 7 C-3.75023244 3.34683329 -3.32901247 2.21934164 0 0 Z " fill="#DB2E32" transform="translate(80,204)"/>
<path d="M0 0 C1.98 0 3.96 0 6 0 C5.01 3.3 4.02 6.6 3 10 C0.70366176 6.55549263 0.45983515 4.06187717 0 0 Z " fill="#DA6364" transform="translate(233,107)"/>
<path d="M0 0 C0.33 0 0.66 0 1 0 C1.36504603 1.58086048 1.71660506 3.16483907 2.0625 4.75 C2.25972656 5.63171875 2.45695312 6.5134375 2.66015625 7.421875 C2.99825872 9.98679028 2.81158635 11.57091639 2 14 C1.34 13.67 0.68 13.34 0 13 C-0.33 13.99 -0.66 14.98 -1 16 C-0.67 10.72 -0.34 5.44 0 0 Z " fill="#DF2F30" transform="translate(78,218)"/>
<path d="M0 0 C-2.97 0.66 -5.94 1.32 -9 2 C-8.34 3.65 -7.68 5.3 -7 7 C-7.99 7.99 -8.98 8.98 -10 10 C-10 8.02 -10 6.04 -10 4 C-10.66 3.67 -11.32 3.34 -12 3 C-7.66084721 -0.56430408 -5.53184678 -1.38296169 0 0 Z " fill="#D3292B" transform="translate(201,210)"/>
<path d="M0 0 C0.66 0.33 1.32 0.66 2 1 C2 1.66 2 2.32 2 3 C-0.31 3.33 -2.62 3.66 -5 4 C-5.99 2.68 -6.98 1.36 -8 0 C-5.11541362 -1.44229319 -3.09360585 -0.64450122 0 0 Z " fill="#F81A1D" transform="translate(206,212)"/>
<path d="M0 0 C3.96 0.99 3.96 0.99 8 2 C8.33 1.34 8.66 0.68 9 0 C9 0.99 9 1.98 9 3 C4.92630576 5.03684712 2.41062136 5.0257259 -2 4 C-1.34 2.68 -0.68 1.36 0 0 Z " fill="#F61D1F" transform="translate(192,233)"/>
<path d="M0 0 C0.639375 0.2475 1.27875 0.495 1.9375 0.75 C2.2675 1.74 2.5975 2.73 2.9375 3.75 C1.9375 4.75 1.9375 4.75 -0.625 4.8125 C-1.8315625 4.7815625 -1.8315625 4.7815625 -3.0625 4.75 C-3.3925 3.43 -3.7225 2.11 -4.0625 0.75 C-2.0625 -0.25 -2.0625 -0.25 0 0 Z " fill="#E92524" transform="translate(432.0625,230.25)"/>
<path d="M0 0 C-0.598125 0.2475 -1.19625 0.495 -1.8125 0.75 C-4.51690582 2.29537476 -5.56742238 3.20647365 -7 6 C-7.24492511 9.01726886 -7.17422028 11.98018176 -7 15 C-7.66 15 -8.32 15 -9 15 C-9.05437607 13.41705218 -9.09296271 11.83355744 -9.125 10.25 C-9.14820313 9.36828125 -9.17140625 8.4865625 -9.1953125 7.578125 C-8.98870725 4.85093574 -8.47305841 3.28684592 -7 1 C-4.53721199 -0.231394 -2.7204945 -0.07159196 0 0 Z " fill="#D22D2F" transform="translate(420,215)"/>
<path d="M0 0 C1.98 0 3.96 0 6 0 C6 1.32 6 2.64 6 4 C3.69 4 1.38 4 -1 4 C-0.67 2.68 -0.34 1.36 0 0 Z " fill="#FA1C1F" transform="translate(169,211)"/>
<path d="M0 0 C2.475 0.495 2.475 0.495 5 1 C5 5.29 5 9.58 5 14 C3.35 14 1.7 14 0 14 C1.32 13.67 2.64 13.34 4 13 C3.67 9.7 3.34 6.4 3 3 C2.01 2.67 1.02 2.34 0 2 C0 1.34 0 0.68 0 0 Z " fill="#D83135" transform="translate(245,202)"/>
<path d="M0 0 C1.86323318 0.25288812 3.71708432 0.57690153 5.5625 0.9375 C6.57441406 1.13214844 7.58632813 1.32679688 8.62890625 1.52734375 C9.80259766 1.76130859 9.80259766 1.76130859 11 2 C11 2.66 11 3.32 11 4 C7.7 4 4.4 4 1 4 C1 3.34 1 2.68 1 2 C0.34 1.67 -0.32 1.34 -1 1 C-0.67 0.67 -0.34 0.34 0 0 Z " fill="#FD1B1C" transform="translate(413,233)"/>
<path d="M0 0 C0.99 0 1.98 0 3 0 C3 2.31 3 4.62 3 7 C1.68 7 0.36 7 -1 7 C-0.67 4.69 -0.34 2.38 0 0 Z " fill="#F6211F" transform="translate(452,203)"/>
<path d="M0 0 C2.0625 0.4375 2.0625 0.4375 4 1 C-1.72455159 4.81636773 -7.29749495 4.29282789 -14 4 C-14 3.67 -14 3.34 -14 3 C-12.60974609 2.80083984 -12.60974609 2.80083984 -11.19140625 2.59765625 C-9.99386719 2.42105469 -8.79632813 2.24445313 -7.5625 2.0625 C-6.36753906 1.88847656 -5.17257812 1.71445313 -3.94140625 1.53515625 C-1.12044324 1.31014787 -1.12044324 1.31014787 0 0 Z " fill="#C32D31" transform="translate(429,235)"/>
<path d="M0 0 C1.98 0 3.96 0 6 0 C6 0.66 6 1.32 6 2 C4.68 2 3.36 2 2 2 C2 2.66 2 3.32 2 4 C3.32 4 4.64 4 6 4 C6 4.66 6 5.32 6 6 C0.25 5.25 0.25 5.25 -2 3 C-1.34 3 -0.68 3 0 3 C0 2.01 0 1.02 0 0 Z " fill="#E72023" transform="translate(114,233)"/>
<path d="M0 0 C0.99 0.33 1.98 0.66 3 1 C2.67 2.65 2.34 4.3 2 6 C-0.31 5.67 -2.62 5.34 -5 5 C-3.625 3.5 -3.625 3.5 -2 2 C-1.34 2 -0.68 2 0 2 C0 1.34 0 0.68 0 0 Z " fill="#FA1A1A" transform="translate(132,220)"/>
<path d="M0 0 C1.98 0 3.96 0 6 0 C5.67 1.65 5.34 3.3 5 5 C3.35 4.67 1.7 4.34 0 4 C0 2.68 0 1.36 0 0 Z " fill="#FB1716" transform="translate(151,211)"/>
<path d="M0 0 C0.66 0 1.32 0 2 0 C2 1.32 2 2.64 2 4 C2.99 4.33 3.98 4.66 5 5 C4.01 6.32 3.02 7.64 2 9 C1.34 8.01 0.68 7.02 0 6 C-0.66 5.67 -1.32 5.34 -2 5 C-1.34 3.35 -0.68 1.7 0 0 Z " fill="#DE2C2E" transform="translate(225,206)"/>
<path d="M0 0 C0.66 0.33 1.32 0.66 2 1 C2 2.32 2 3.64 2 5 C0.02 5 -1.96 5 -4 5 C-3.6875 3.0625 -3.6875 3.0625 -3 1 C-2.01 0.67 -1.02 0.34 0 0 Z " fill="#E82626" transform="translate(325,233)"/>
<path d="M0 0 C2.31 0.33 4.62 0.66 7 1 C6.67 1.66 6.34 2.32 6 3 C4.68 3 3.36 3 2 3 C2 3.66 2 4.32 2 5 C1.01 5 0.02 5 -1 5 C-1.33 4.01 -1.66 3.02 -2 2 C-1.34 2 -0.68 2 0 2 C0 1.34 0 0.68 0 0 Z " fill="#FB1C1D" transform="translate(342,212)"/>
<path d="M0 0 C2.5 1.375 2.5 1.375 3.8125 4 C4.1528125 5.175625 4.1528125 5.175625 4.5 6.375 C3.7575 5.900625 3.015 5.42625 2.25 4.9375 C-0.11050015 3.59630673 -1.86648477 2.862688 -4.5 2.375 C-4.5 1.715 -4.5 1.055 -4.5 0.375 C-2.5 -0.625 -2.5 -0.625 0 0 Z " fill="#DB2828" transform="translate(392.5,211.625)"/>
<path d="M0 0 C2.1875 0.3125 2.1875 0.3125 4 1 C4 2.32 4 3.64 4 5 C3.34 5 2.68 5 2 5 C2 4.34 2 3.68 2 3 C0.35 3 -1.3 3 -3 3 C-1.75 1.4375 -1.75 1.4375 0 0 Z " fill="#DC2A2F" transform="translate(98,230)"/>
<path d="M0 0 C1.32 0.33 2.64 0.66 4 1 C3.67 1.99 3.34 2.98 3 4 C0.69 4 -1.62 4 -4 4 C-3.67 3.34 -3.34 2.68 -3 2 C-2.01 2 -1.02 2 0 2 C0 1.34 0 0.68 0 0 Z " fill="#F91B1D" transform="translate(122,221)"/>
<path d="M0 0 C2.64 0 5.28 0 8 0 C8 0.33 8 0.66 8 1 C5.69 1 3.38 1 1 1 C1.33 2.65 1.66 4.3 2 6 C0.68 5.34 -0.64 4.68 -2 4 C-1.34 2.68 -0.68 1.36 0 0 Z " fill="#CD2F31" transform="translate(295,210)"/>
<path d="M0 0 C2.39763185 2.39763185 2.34280586 3.33273498 2.625 6.625 C2.69976562 7.44226563 2.77453125 8.25953125 2.8515625 9.1015625 C2.92503906 10.04128906 2.92503906 10.04128906 3 11 C2.71382813 10.37609375 2.42765625 9.7521875 2.1328125 9.109375 C0.80415977 6.63533198 -0.68676698 5.54215535 -3 4 C-2.34 3.67 -1.68 3.34 -1 3 C-0.67 2.01 -0.34 1.02 0 0 Z " fill="#E0292A" transform="translate(426,211)"/>
<path d="M0 0 C2.64 0 5.28 0 8 0 C7.01 0.495 7.01 0.495 6 1 C6 1.99 6 2.98 6 4 C4.02 3.34 2.04 2.68 0 2 C0 1.34 0 0.68 0 0 Z " fill="#F91D1D" transform="translate(382,211)"/>
<path d="M0 0 C0.99 0.66 1.98 1.32 3 2 C2.67 3.65 2.34 5.3 2 7 C0.35 5.35 -1.3 3.7 -3 2 C-2.01 1.34 -1.02 0.68 0 0 Z " fill="#D16768" transform="translate(248,128)"/>
<path d="M0 0 C-3.44450737 2.29633824 -5.93812283 2.54016485 -10 3 C-6.81859267 -0.48439851 -4.56758339 -1.41752588 0 0 Z " fill="#D7636B" transform="translate(288,83)"/>
<path d="M0 0 C0 0.66 0 1.32 0 2 C-0.66 2 -1.32 2 -2 2 C-2 2.66 -2 3.32 -2 4 C-3.65 3.67 -5.3 3.34 -7 3 C-7 2.34 -7 1.68 -7 1 C-4 0 -4 0 0 0 Z " fill="#F3211D" transform="translate(396,233)"/>
<path d="M0 0 C0.66 0.99 1.32 1.98 2 3 C1.67 3.99 1.34 4.98 1 6 C0.64763503 7.99673484 0.31165441 9.99650739 0 12 C-0.33 12 -0.66 12 -1 12 C-1.02687279 10.18757948 -1.04633715 8.37504767 -1.0625 6.5625 C-1.07410156 5.55316406 -1.08570313 4.54382813 -1.09765625 3.50390625 C-1 1 -1 1 0 0 Z " fill="#F12626" transform="translate(372,215)"/>
<path d="M0 0 C1.32 0 2.64 0 4 0 C4.33 1.98 4.66 3.96 5 6 C3.31237149 4.3545622 1.6459651 2.68711423 0 1 C0 0.67 0 0.34 0 0 Z " fill="#D76466" transform="translate(240,123)"/>
</svg>
